<?xml version="1.0" encoding="utf-8"?>
<!-- Generator: Adobe Illustrator 21.1.0, SVG Export Plug-In . SVG Version: 6.00 Build 0)  -->
<svg version="1.1" id="Ebene_1" xmlns="http://www.w3.org/2000/svg" xmlns:xlink="http://www.w3.org/1999/xlink" x="0px" y="0px"
	 viewBox="0 0 522 188" enable-background="new 0 0 522 188" xml:space="preserve">
<g>
	<g>
		<g>
			<path fill="#797D80" d="M133,156H11c-0.6,0-1-0.4-1-1v-14c0-0.6,0.4-1,1-1h122c0.6,0,1,0.4,1,1v14C134,155.6,133.6,156,133,156z
				 M12,154h120v-12H12V154z"/>
		</g>
	</g>
	<g>
		<g>
			<path fill="#797D80" d="M112,44v16h16V44H112z M122,50l-3.8,3.8L116,52l-2,2v-8h12v8L122,50z"/>
		</g>
		<g>
			<circle fill="#797D80" cx="117.5" cy="49.5" r="1.5"/>
		</g>
	</g>
	<g>
		<g>
			<path fill="#47BDEF" d="M36,104v24H12v-24H36 M36,102H12c-1.1,0-2,0.9-2,2v24c0,1.1,0.9,2,2,2h24c1.1,0,2-0.9,2-2v-24
				C38,102.9,37.1,102,36,102L36,102z"/>
		</g>
	</g>
	<g>
		<g>
			<path fill="#797D80" d="M510,92h-52c-0.6,0-1-0.4-1-1V77c0-0.6,0.4-1,1-1h52c0.6,0,1,0.4,1,1v14C511,91.6,510.6,92,510,92z
				 M459,90h50V78h-50V90z"/>
		</g>
	</g>
	<g opacity="0.75">
		<g>
			<rect x="463" y="82" fill="#47BDEF" width="42" height="4"/>
		</g>
	</g>
	<g opacity="0.75">
		<g>
			<rect x="419" y="83" fill="#797D80" width="28" height="4"/>
		</g>
	</g>
	<g opacity="0.75">
		<g>
			<rect x="419" y="114" fill="#797D80" width="28" height="4"/>
		</g>
	</g>
	<g>
		<g>
			<path fill="#797D80" d="M510,124h-52c-0.6,0-1-0.4-1-1v-14c0-0.6,0.4-1,1-1h52c0.6,0,1,0.4,1,1v14C511,123.6,510.6,124,510,124z
				 M459,122h50v-12h-50V122z"/>
		</g>
	</g>
	<g>
		<g>
			<g>
				<g>
					<rect x="16" y="145" fill="#47BDEF" width="6" height="6"/>
				</g>
			</g>
			<g>
				<g>
					<rect x="26" y="146" fill="#47BDEF" width="45" height="4"/>
				</g>
			</g>
			<g opacity="0.75">
				<g>
					<rect x="28" y="164" fill="#797D80" width="16" height="4"/>
				</g>
			</g>
		</g>
	</g>
	<g>
		<g>
			<path fill="#797D80" d="M320,164H202c-3.9,0-7-3.1-7-7V39c0-3.9,3.1-7,7-7h118c3.9,0,7,3.1,7,7v118C327,160.9,323.9,164,320,164z
				 M202,34c-2.8,0-5,2.2-5,5v118c0,2.8,2.2,5,5,5h118c2.8,0,5-2.2,5-5V39c0-2.8-2.2-5-5-5H202z"/>
		</g>
		<g>
			<rect x="326" y="97" fill="#797D80" width="33" height="2"/>
		</g>
		<g>
			<rect x="163" y="97" fill="#797D80" width="33" height="2"/>
		</g>
	</g>
	<g>
		<g>
			<path fill="#797D80" d="M28,108h-8c-2.2,0-4,1.8-4,4v8c0,2.2,1.8,4,4,4h8c2.2,0,4-1.8,4-4v-8C32,109.8,30.2,108,28,108z M30,120
				c0,1.1-0.9,2-2,2h-8c-1.1,0-2-0.9-2-2v-8c0-1.1,0.9-2,2-2h8c1.1,0,2,0.9,2,2V120z"/>
		</g>
		<g>
			<path fill="#797D80" d="M24,112c-2.2,0-4,1.8-4,4s1.8,4,4,4c2.2,0,4-1.8,4-4S26.2,112,24,112z M24,119c-1.7,0-3-1.3-3-3
				s1.3-3,3-3c1.7,0,3,1.3,3,3S25.7,119,24,119z"/>
		</g>
	</g>
	<g>
		<g>
			<path fill="#797D80" d="M94,76H82c-1.1,0-2,0.9-2,2v9c0,1.1,0.9,2,2,2h1v3l5-3h6c1.1,0,2-0.9,2-2v-9C96,76.9,95.1,76,94,76z
				 M94,87h-6h-0.6L87,87.3l-2,1.2V87h-2h-1v-9h12V87z"/>
		</g>
		<g>
			<rect x="84" y="83" fill="#797D80" width="6" height="2"/>
		</g>
		<g>
			<rect x="84" y="80" fill="#797D80" width="8" height="2"/>
		</g>
	</g>
	<g>
		<g>
			<rect x="16" y="89" fill="#797D80" width="8" height="2"/>
		</g>
	</g>
	<g>
		<g>
			<rect x="16" y="85" fill="#797D80" width="16" height="2"/>
		</g>
	</g>
	<g>
		<g>
			<rect x="16" y="77" fill="#797D80" width="16" height="2"/>
		</g>
	</g>
	<g>
		<g>
			<rect x="16" y="81" fill="#797D80" width="16" height="2"/>
		</g>
	</g>
	<g>
		<g>
			<path fill="#797D80" d="M126,78v12h-12V78H126 M128,76h-16v16h16V76L128,76z"/>
		</g>
	</g>
	<g>
		<g>
			<path fill="#797D80" d="M124,88h-8v-1c0-1.1,0.9-2,2-2h4c1.1,0,2,0.9,2,2V88z"/>
		</g>
	</g>
	<g>
		<g>
			<path fill="#797D80" d="M122,82c0,1.1-0.9,3-2,3s-2-1.9-2-3s0.9-2,2-2S122,80.9,122,82z"/>
		</g>
	</g>
	<g>
		<g>
			<g>
				<g>
					<path fill="#797D80" d="M56,44c-4.4,0-8,3.6-8,8s3.6,8,8,8s8-3.6,8-8S60.4,44,56,44z M61,53h-4v4h-2v-4h-4v-2h4v-4h2v4h4V53z"
						/>
				</g>
			</g>
		</g>
	</g>
	<g>
		<path fill="#797D80" d="M53,112v8.5c-0.5-0.3-1.2-0.5-2-0.5c-1.7,0-3,0.9-3,2s1.3,2,3,2s3-0.9,3-2v-6.4l9-3.3v5.2
			c-0.5-0.3-1.2-0.5-2-0.5c-1.7,0-3,0.9-3,2s1.3,2,3,2s3-0.9,3-2v-11L53,112z"/>
	</g>
	<g>
		<g>
			<path fill="#797D80" d="M96,115.6c-0.1,1.3-0.5,2.3-1.3,3.3c-0.8,0.9-1.9,1.4-3.5,1.4c-0.5,0-1-0.1-1.3-0.4
				c-0.4-0.3-0.6-0.6-0.8-1.1c-0.3,0.5-0.6,0.9-1,1.1c-0.4,0.2-0.9,0.4-1.4,0.4c-0.9,0-1.7-0.3-2.2-1c-0.5-0.7-0.7-1.6-0.5-2.7
				c0.2-1.4,0.6-2.6,1.4-3.5s1.7-1.3,2.8-1.3c0.8,0,1.4,0.1,1.8,0.2s1,0.4,1.5,0.7l0,0h0l-0.5,4.9c0,0.5,0,0.8,0.1,1
				c0.1,0.2,0.2,0.3,0.4,0.3c0.7,0,1.3-0.3,1.7-0.9s0.7-1.4,0.7-2.3c0.1-1.9-0.3-3.5-1.3-4.5c-0.9-1.1-2.4-1.6-4.4-1.6
				c-1.9,0-3.4,0.6-4.5,1.8s-1.7,2.8-1.8,4.8c-0.1,2,0.3,3.5,1.4,4.7c1,1.1,2.5,1.7,4.4,1.7c0.5,0,1.1-0.1,1.7-0.2s1.1-0.2,1.5-0.4
				l0.4,1.4c-0.4,0.2-1,0.4-1.6,0.6c-0.7,0.1-1.3,0.2-1.9,0.2c-2.6,0-4.5-0.7-5.9-2.1c-1.4-1.4-2-3.4-1.9-5.9
				c0.1-2.5,0.9-4.4,2.4-5.8c1.5-1.4,3.5-2.2,6-2.2c2.5,0,4.4,0.7,5.7,2C95.5,111.4,96.1,113.3,96,115.6z M86.4,116.5
				c-0.1,0.7,0,1.2,0.2,1.6c0.2,0.4,0.4,0.5,0.8,0.5c0.3,0,0.6-0.1,0.9-0.3c0.3-0.2,0.5-0.5,0.7-1l0.4-3.9c-0.1,0-0.3-0.1-0.4-0.1
				c-0.1,0-0.3,0-0.4,0c-0.7,0-1.2,0.3-1.5,0.8C86.8,114.7,86.5,115.5,86.4,116.5z"/>
		</g>
	</g>
	<g>
		<path fill="#797D80" d="M127.7,115.3l-2-2c-0.2-0.2-0.4-0.3-0.7-0.3h-2.5l0.9-2.3c0.2-0.6,0.2-1.3-0.2-1.9c-0.4-0.5-1-0.9-1.7-0.9
			H120c-0.4,0-0.7,0.2-0.9,0.6l-2.4,4.8c-0.2-0.2-0.4-0.3-0.7-0.3h-3c-0.6,0-1,0.4-1,1v9c0,0.6,0.4,1,1,1h3c0.5,0,0.9-0.4,1-0.9
			l1.6,0.8c0.1,0.1,0.3,0.1,0.4,0.1h6c0.3,0,0.5-0.1,0.7-0.3l1-1c0.1-0.1,0.2-0.3,0.3-0.5l1-6C128,115.8,127.9,115.5,127.7,115.3z
			 M125.1,121.5l-0.5,0.5h-5.4l-1.2-0.6v-6.1l2.6-5.2h0.9l-1.5,3.6c-0.1,0.3-0.1,0.7,0.1,0.9s0.5,0.4,0.8,0.4h3.6l1.3,1.3
			L125.1,121.5z"/>
	</g>
	<g>
		<path fill="#797D80" d="M62.3,84.2l-5.8-1l0-5.7c0-0.2,0-0.4-0.1-0.7c-0.4-1.1-1.6-1.7-2.6-1.3c-1.1,0.4-1.7,1.6-1.3,2.6l1.8,5.4
			l-5.2,3c-0.2,0.1-0.4,0.2-0.5,0.4c-0.8,0.8-0.7,2.2,0.1,2.9c0.8,0.8,2.2,0.7,2.9-0.1l4.1-4.5l5.3,2.8c0.2,0.1,0.4,0.2,0.6,0.2
			c1.1,0.2,2.2-0.6,2.4-1.7C64.2,85.5,63.4,84.4,62.3,84.2z"/>
	</g>
	<g>
		<g>
			<path fill="#797D80" d="M92.9,47.1l-1.4,1.4c0.9,0.9,1.5,2.2,1.5,3.5c0,2.8-2.2,5-5,5v-2l-3,3l3,3v-2c3.9,0,7-3.1,7-7
				C95,50.1,94.3,48.4,92.9,47.1z"/>
		</g>
		<g>
			<path fill="#797D80" d="M88,47v2l3-3l-3-3v2c-3.9,0-7,3.1-7,7c0,1.9,0.7,3.6,2.1,4.9l1.4-1.4C83.5,54.6,83,53.3,83,52
				C83,49.2,85.2,47,88,47z"/>
		</g>
	</g>
	<g>
		<g>
			<rect x="20" y="54" fill="#797D80" width="8" height="2"/>
		</g>
		<g>
			<rect x="20" y="50" fill="#797D80" width="8" height="2"/>
		</g>
		<g>
			<path fill="#797D80" d="M32,44H16v16h16V44z M20,46h1v1h-1V46z M18,46h1v1h-1V46z M30,58H18V48h12V58z M30,47h-8v-1h8V47z"/>
		</g>
	</g>
	<g>
		<g>
			<path fill="#797D80" d="M409,60h-16V44h16V60z M396,57h10V47h-10V57z"/>
		</g>
	</g>
	<g>
		<g>
			<path fill="#797D80" d="M453,60h-8c-2.2,0-4-1.8-4-4v-8c0-2.2,1.8-4,4-4h12v12C457,58.2,455.2,60,453,60z M445,57h8
				c0.6,0,1-0.4,1-1v-9h-9c-0.6,0-1,0.4-1,1v8C444,56.6,444.4,57,445,57z"/>
		</g>
	</g>
	<g>
		<g>
			<path fill="#47BDEF" d="M509,40v24h-24V40H509 M509,38h-24c-1.1,0-2,0.9-2,2v24c0,1.1,0.9,2,2,2h24c1.1,0,2-0.9,2-2V40
				C511,38.9,510.1,38,509,38L509,38z"/>
		</g>
	</g>
	<g>
		<g>
			<path fill="#797D80" d="M501,60h-8c-2.2,0-4-1.8-4-4v-8c0-2.2,1.8-4,4-4h8c2.2,0,4,1.8,4,4v8C505,58.2,503.2,60,501,60z M493,57
				h8c0.6,0,1-0.4,1-1v-8c0-0.6-0.4-1-1-1h-8c-0.6,0-1,0.4-1,1v8C492,56.6,492.4,57,493,57z"/>
		</g>
	</g>
	<g>
		<rect x="399" y="50" fill="#797D80" width="4" height="4"/>
	</g>
	<g>
		<path fill="#797D80" d="M450,54h-2c-0.6,0-1-0.4-1-1v-2c0-0.6,0.4-1,1-1h2c0.6,0,1,0.4,1,1v2C451,53.6,450.6,54,450,54z"/>
	</g>
	<g>
		<path fill="#797D80" d="M498,54h-2c-0.6,0-1-0.4-1-1v-2c0-0.6,0.4-1,1-1h2c0.6,0,1,0.4,1,1v2C499,53.6,498.6,54,498,54z"/>
	</g>
	<path fill="#797D80" d="M24.7,163.7l-1.4-1.4l-0.6,0.6c-0.4-0.5-1-0.9-1.7-0.9h-4c-1.1,0-2,0.9-2,2v4c0,1.1,0.9,2,2,2h4
		c1.1,0,2-0.9,2-2v-2.6L24.7,163.7z M22,168c0,0.6-0.4,1-1,1h-4c-0.6,0-1-0.4-1-1v-4c0-0.6,0.4-1,1-1h4c0.4,0,0.8,0.3,0.9,0.7
		l-1.9,1.9l-1.3-1.3l-1.4,1.4l2.7,2.7l2-2V168z"/>
	<g opacity="0.75">
		<g>
			<rect x="67" y="164" fill="#797D80" width="16" height="4"/>
		</g>
	</g>
	<g>
		<g>
			<path fill="#797D80" d="M60,163c0.6,0,1,0.4,1,1v4c0,0.6-0.4,1-1,1h-4c-0.6,0-1-0.4-1-1v-4c0-0.6,0.4-1,1-1H60 M60,162h-4
				c-1.1,0-2,0.9-2,2v4c0,1.1,0.9,2,2,2h4c1.1,0,2-0.9,2-2v-4C62,162.9,61.1,162,60,162L60,162z"/>
		</g>
	</g>
	<g>
		<path fill="#797D80" d="M399.7,78c-2,0-3.8,0.5-5.3,1.2c-0.8,0.4-1.4,1.3-1.4,2.2v0c0,1,0.6,1.9,1.5,2.3l1.7,0.8
			c0.5,0.2,0.8,0.7,0.8,1.3v0.3c0,0.8-0.7,1.4-1.5,1.4c-1,0-1.9,0.8-1.9,1.8v0c0,0.7,0.4,1.3,1,1.6c1.4,0.7,3.2,1.1,5,1.1
			c5.2,0,9.3-3.1,9.3-7C409,81.1,404.8,78,399.7,78z M397,90c-0.6,0-1-0.4-1-1c0-0.6,0.4-1,1-1s1,0.4,1,1C398,89.6,397.6,90,397,90z
			 M396.5,83c-0.8,0-1.5-0.7-1.5-1.5s0.7-1.5,1.5-1.5s1.5,0.7,1.5,1.5S397.3,83,396.5,83z M399,80.5c0-0.8,0.7-1.5,1.5-1.5
			s1.5,0.7,1.5,1.5s-0.7,1.5-1.5,1.5S399,81.3,399,80.5z M401.5,90c-0.8,0-1.5-0.7-1.5-1.5s0.7-1.5,1.5-1.5s1.5,0.7,1.5,1.5
			S402.3,90,401.5,90z M403,82.5c0-0.8,0.7-1.5,1.5-1.5s1.5,0.7,1.5,1.5s-0.7,1.5-1.5,1.5S403,83.3,403,82.5z M405.5,88
			c-0.8,0-1.5-0.7-1.5-1.5s0.7-1.5,1.5-1.5s1.5,0.7,1.5,1.5S406.3,88,405.5,88z"/>
	</g>
	<g opacity="0.75">
		<g>
			<rect x="463" y="114" fill="#47BDEF" width="42" height="4"/>
		</g>
	</g>
	<g>
		<g>
			<path fill="#797D80" d="M393,140v16h16v-16H393z M403,146l-3.8,3.8L397,148l-2,2v-8h12v8L403,146z"/>
		</g>
		<g>
			<circle fill="#797D80" cx="398.5" cy="145.5" r="1.5"/>
		</g>
	</g>
	<g>
		<g>
			<path fill="#797D80" d="M510,156h-90c-0.6,0-1-0.4-1-1v-14c0-0.6,0.4-1,1-1h90c0.6,0,1,0.4,1,1v14C511,155.6,510.6,156,510,156z
				 M421,154h88v-12h-88V154z"/>
		</g>
	</g>
	<g opacity="0.75">
		<g>
			<rect x="435" y="146" fill="#797D80" width="48" height="4"/>
		</g>
	</g>
	<g opacity="0.5">
		<g>
			<rect x="425" y="145" fill="#797D80" width="6" height="6"/>
		</g>
	</g>
	<g>
		<rect x="93" y="11" fill="#47BDEF" width="52" height="2"/>
	</g>
	<g>
		<rect x="1" y="184" fill="#47BDEF" width="144" height="2"/>
	</g>
	<g>
		<rect x="377" y="184" fill="#47BDEF" width="144" height="2"/>
	</g>
	<g>
		<rect x="1" y="11" fill="#47BDEF" width="52" height="2"/>
	</g>
	<g>
		<rect x="465" y="11" fill="#47BDEF" width="56" height="2"/>
	</g>
	<g>
		<rect x="377" y="11" fill="#47BDEF" width="56" height="2"/>
	</g>
	<g>
		<g>
			<g>
				<path fill="#797D80" d="M366,92c3.3,0,6,2.7,6,6c0,3.3-2.7,6-6,6s-6-2.7-6-6C360,94.7,362.7,92,366,92 M366,90c-4.4,0-8,3.6-8,8
					s3.6,8,8,8s8-3.6,8-8S370.4,90,366,90L366,90z"/>
			</g>
		</g>
	</g>
	<g>
		<circle fill="#47BDEF" cx="366" cy="98" r="4"/>
	</g>
	<g>
		<g>
			<g>
				<path fill="#47BDEF" d="M231,69h-4c-0.6,0-1-0.4-1-1v-4c0-0.6,0.4-1,1-1h4c0.6,0,1,0.4,1,1v4C232,68.6,231.6,69,231,69z"/>
			</g>
			<g>
				<path fill="#47BDEF" d="M231,133h-4c-0.6,0-1-0.4-1-1v-4c0-0.6,0.4-1,1-1h4c0.6,0,1,0.4,1,1v4C232,132.6,231.6,133,231,133z"/>
			</g>
			<g>
				<polygon fill="#47BDEF" points="263,64 263,60 263,56 255,56 255,60 259,60 259,72 263,72 263,68 271,68 271,64 				"/>
				<polygon fill="#47BDEF" points="283,96 291,96 291,92 283,92 279,92 275,92 275,96 279,96 279,104 283,104 				"/>
				<polygon fill="#47BDEF" points="291,100 287,100 287,104 295,104 295,100 299,100 299,108 303,108 303,96 291,96 				"/>
				<polygon fill="#47BDEF" points="295,80 283,80 283,84 279,84 279,88 287,88 287,84 291,84 291,88 295,88 295,92 303,92 303,88 
					299,88 299,84 295,84 				"/>
				<rect x="275" y="76" fill="#47BDEF" width="4" height="8"/>
				<polygon fill="#47BDEF" points="251,80 255,80 255,84 259,84 259,76 251,76 251,68 255,68 255,64 243,64 243,68 247,68 247,72 
					243,72 243,76 247,76 247,80 239,80 239,84 251,84 				"/>
				<rect x="219" y="80" fill="#47BDEF" width="8" height="4"/>
				<rect x="227" y="84" fill="#47BDEF" width="4" height="4"/>
				<rect x="299" y="136" fill="#47BDEF" width="4" height="4"/>
				<rect x="251" y="136" fill="#47BDEF" width="12" height="4"/>
				<rect x="243" y="136" fill="#47BDEF" width="4" height="4"/>
				<rect x="243" y="116" fill="#47BDEF" width="4" height="8"/>
				<polygon fill="#47BDEF" points="247,128 243,128 243,132 247,132 247,136 251,136 251,124 247,124 				"/>
				<rect x="299" y="80" fill="#47BDEF" width="4" height="4"/>
				<rect x="287" y="116" fill="#47BDEF" width="4" height="4"/>
				<path fill="#47BDEF" d="M279,108v-4h-4v8h4v4h-4v4h-4v4h-4v4h-8v-4h4v-4h4v-4h4v-4h-8v4h-4v4h-8v4h4v8h12v4h4v4h12v-4h4v-4h-8v4
					h-4v-4h-4v-4h4v-4h4v4h16v4h-4v4h8v-4h4v-4h-4v-12h4v-4h-4v-4H279z M295,124h-12v-12h12V124z"/>
				<rect x="239" y="100" fill="#47BDEF" width="4" height="8"/>
				<rect x="243" y="96" fill="#47BDEF" width="4" height="4"/>
				<rect x="243" y="108" fill="#47BDEF" width="4" height="4"/>
				<rect x="251" y="112" fill="#47BDEF" width="4" height="4"/>
				<polygon fill="#47BDEF" points="235,112 235,108 231,108 231,112 231,116 243,116 243,112 				"/>
				<polygon fill="#47BDEF" points="227,116 227,112 223,112 223,104 219,104 219,116 				"/>
				<polygon fill="#47BDEF" points="223,92 219,92 219,100 223,100 223,96 227,96 227,88 223,88 				"/>
				<polygon fill="#47BDEF" points="235,104 235,92 239,92 239,96 243,96 243,92 247,92 247,88 243,88 239,88 239,84 235,84 235,88 
					231,88 231,100 227,100 227,108 231,108 231,104 				"/>
				<polygon fill="#47BDEF" points="275,64 279,64 279,56 267,56 267,60 275,60 				"/>
				<polygon fill="#47BDEF" points="279,72 279,68 271,68 271,72 267,72 267,76 263,76 263,84 267,84 267,80 271,80 271,76 275,76 
					275,72 				"/>
				<rect x="243" y="56" fill="#47BDEF" width="8" height="4"/>
				<path fill="#47BDEF" d="M225,76h8c3.3,0,6-2.7,6-6v-8c0-3.3-2.7-6-6-6h-8c-3.3,0-6,2.7-6,6v8C219,73.3,221.7,76,225,76z M223,62
					c0-1.1,0.9-2,2-2h8c1.1,0,2,0.9,2,2v8c0,1.1-0.9,2-2,2h-8c-1.1,0-2-0.9-2-2V62z"/>
				<path fill="#47BDEF" d="M233,120h-8c-3.3,0-6,2.7-6,6v8c0,3.3,2.7,6,6,6h8c3.3,0,6-2.7,6-6v-8C239,122.7,236.3,120,233,120z
					 M235,134c0,1.1-0.9,2-2,2h-8c-1.1,0-2-0.9-2-2v-8c0-1.1,0.9-2,2-2h8c1.1,0,2,0.9,2,2V134z"/>
				<path fill="#47BDEF" d="M297,56h-8c-3.3,0-6,2.7-6,6v8c0,3.3,2.7,6,6,6h8c3.3,0,6-2.7,6-6v-8C303,58.7,300.3,56,297,56z M299,70
					c0,1.1-0.9,2-2,2h-8c-1.1,0-2-0.9-2-2v-8c0-1.1,0.9-2,2-2h8c1.1,0,2,0.9,2,2V70z"/>
			</g>
			<g>
				<path fill="#47BDEF" d="M295,69h-4c-0.6,0-1-0.4-1-1v-4c0-0.6,0.4-1,1-1h4c0.6,0,1,0.4,1,1v4C296,68.6,295.6,69,295,69z"/>
			</g>
		</g>
	</g>
	<g>
		<g>
			<g>
				<path fill="#797D80" d="M156,92c3.3,0,6,2.7,6,6c0,3.3-2.7,6-6,6s-6-2.7-6-6C150,94.7,152.7,92,156,92 M156,90c-4.4,0-8,3.6-8,8
					s3.6,8,8,8s8-3.6,8-8S160.4,90,156,90L156,90z"/>
			</g>
		</g>
	</g>
	<g>
		<circle fill="#47BDEF" cx="156" cy="98" r="4"/>
	</g>
	<path fill="#47BDEF" d="M73,2c-5.5,0-10,4.5-10,10c0,5.5,4.5,10,10,10s10-4.5,10-10C83,6.5,78.5,2,73,2z M76.9,13.7
		c0-0.6,0.1-1.1,0.1-1.7s0-1.1-0.1-1.7c2.7,0.5,4.1,1.3,4.1,1.7S79.6,13.2,76.9,13.7z M73,20c-0.4,0-1.2-1.4-1.7-4.1
		c0.6,0,1.1,0.1,1.7,0.1s1.1,0,1.7-0.1C74.2,18.6,73.4,20,73,20z M73,14c-0.7,0-1.3,0-1.9-0.1c0-0.6-0.1-1.2-0.1-1.9s0-1.3,0.1-1.9
		c0.6,0,1.2-0.1,1.9-0.1s1.3,0,1.9,0.1c0,0.6,0.1,1.2,0.1,1.9s0,1.3-0.1,1.9C74.3,14,73.7,14,73,14z M65,12c0-0.4,1.4-1.2,4.1-1.7
		c0,0.6-0.1,1.1-0.1,1.7s0,1.1,0.1,1.7C66.4,13.2,65,12.4,65,12z M73,4c0.4,0,1.2,1.4,1.7,4.1C74.1,8,73.6,8,73,8s-1.1,0-1.7,0.1
		C71.8,5.4,72.6,4,73,4z M80.5,9.2c-1.1-0.5-2.4-0.8-3.8-1c-0.2-1.4-0.5-2.7-1-3.8C78,5.3,79.7,7,80.5,9.2z M70.2,4.5
		c-0.5,1.1-0.8,2.4-1,3.8c-1.4,0.2-2.7,0.5-3.8,1C66.3,7,68,5.3,70.2,4.5z M65.5,14.8c1.1,0.5,2.4,0.8,3.8,1c0.2,1.4,0.5,2.7,1,3.8
		C68,18.7,66.3,17,65.5,14.8z M75.8,19.5c0.5-1.1,0.8-2.4,1-3.8c1.4-0.2,2.7-0.5,3.8-1C79.7,17,78,18.7,75.8,19.5z"/>
</g>
<g>
	<ellipse transform="matrix(0.7071 -0.7071 0.7071 0.7071 12.1487 215.3295)" fill="#47BDEF" cx="266" cy="93" rx="2" ry="2"/>
	<ellipse transform="matrix(0.7071 -0.7071 0.7071 0.7071 5.0776 218.2584)" fill="#47BDEF" cx="266" cy="103" rx="2" ry="2"/>
	<path fill="#47BDEF" d="M271,87h-16.6c-0.3,0-0.5,0.1-0.7,0.3l-3.4,3.4c-0.2,0.2-0.3,0.4-0.3,0.7V108c0,0.6,0.4,1,1,1h20
		c0.6,0,1-0.4,1-1V88C272,87.4,271.6,87,271,87z M260,103c0,1-0.4,2-1.2,2.8c-0.8,0.8-1.8,1.2-2.8,1.2c-1.3,0-2.5-0.6-3.3-1.8
		c-0.9-1.3-0.9-3.1,0-4.4c0.8-1.2,2.1-1.8,3.3-1.8c1,0,2,0.4,2.7,1.1c0.1,0.1,0.1,0.2,0,0.2l-1,1c-0.1,0.1-0.1,0.1-0.2,0
		c-0.4-0.4-1-0.6-1.5-0.6c-0.7,0-1.4,0.4-1.9,1c-0.5,0.8-0.5,1.8,0,2.6c0.4,0.6,1.1,1,1.9,1c0.6,0,1.2-0.2,1.6-0.7
		c0.3-0.3,0.5-0.7,0.6-1h-2.4c-0.1,0-0.2-0.2-0.1-0.2l0.7-0.8c0.1-0.1,0.3-0.2,0.4-0.2h3c0.1,0,0.1,0.1,0.1,0.2L260,103z M260,95.2
		V97h-7v-7l1-1h1v6.2H260z M266,107c-2.2,0-4-1.8-4-4c0-2.2,1.8-4,4-4c2.2,0,4,1.8,4,4C270,105.2,268.2,107,266,107z M266,97
		c-2.2,0-4-1.8-4-4c0-2.2,1.8-4,4-4c2.2,0,4,1.8,4,4C270,95.2,268.2,97,266,97z"/>
</g>
<path fill="#47BDEF" d="M459,4l-2-2h-1l-3,3l-2-2l-2,2l1.5,1.5L449,8l-5-5h-2l-2,2v2l5,5l-4,4v2l-2,2l2,2l2-2h2l4-4l5,5l4,1l1-1
	l-1-4l-5-5l1.5-1.5L456,12l2-2l-2-2l3-3V4z M441.8,6l1.2-1.2l4.6,4.6l-1.2,1.2L441.8,6z M456.2,18l-1.2,1.2l-4.6-4.6l1.2-1.2
	L456.2,18z M444.2,18H443v-1.2l8.9-8.9l1.2,1.2L444.2,18z"/>
</svg>
