<?xml version="1.0" encoding="utf-8"?>
<!-- Generator: Adobe Illustrator 21.1.0, SVG Export Plug-In . SVG Version: 6.00 Build 0)  -->
<svg version="1.1" id="Ebene_1" xmlns="http://www.w3.org/2000/svg" xmlns:xlink="http://www.w3.org/1999/xlink" x="0px" y="0px"
	 viewBox="0 0 522 224" enable-background="new 0 0 522 224" xml:space="preserve">
<g>
	<g>
		<polyline fill="#FFFFFF" points="212,37 212,2 310,2 310,37 		"/>
		<g opacity="0.5">
			<rect x="310" y="17" fill="#797D80" width="4" height="20"/>
		</g>
		<g opacity="0.5">
			<rect x="210" y="78" fill="#797D80" width="102" height="3"/>
		</g>
		<g opacity="0.5">
			<rect x="312" y="78" fill="#797D80" width="3" height="16"/>
		</g>
		<g opacity="0.5">
			<rect x="208" y="17" fill="#797D80" width="4" height="20"/>
		</g>
		<g opacity="0.5">
			<rect x="207" y="78" fill="#797D80" width="3" height="16"/>
		</g>
	</g>
	<g>
		<path fill="#797D80" d="M187,55c1.1,0,2,0.9,2,2s-0.9,2-2,2s-2-0.9-2-2S185.9,55,187,55 M187,54c-1.7,0-3,1.3-3,3s1.3,3,3,3
			s3-1.3,3-3S188.7,54,187,54L187,54z"/>
	</g>
	<g>
		<path fill="#797D80" d="M197,55c1.1,0,2,0.9,2,2s-0.9,2-2,2s-2-0.9-2-2S195.9,55,197,55 M197,54c-1.7,0-3,1.3-3,3s1.3,3,3,3
			s3-1.3,3-3S198.7,54,197,54L197,54z"/>
	</g>
	<g>
		<g>
			<rect x="335" y="95" fill="#797D80" width="20" height="2"/>
		</g>
		<g opacity="0.25">
			<g>
				<g>
					<path fill="#797D80" d="M210,101h-31c-1.1,0-2-0.9-2-2l0,0c0-1.1,0.9-2,2-2h22.3l5-3h3.7V101z"/>
				</g>
			</g>
		</g>
		<g opacity="0.25">
			<g>
				<g>
					<path fill="#797D80" d="M343,101h-31v-7h4l6,3h21c1.1,0,2,0.9,2,2l0,0C345,100.1,344.1,101,343,101z"/>
				</g>
			</g>
		</g>
		<g>
			<rect x="167" y="95" fill="#797D80" width="20" height="2"/>
		</g>
		<path fill="#797D80" d="M496,203v-6h7c0.6,0,1-0.4,1-1v-26c0-0.6-0.4-1-1-1h-5.5l1.2-3h3.3v-2h-8v2h2.5l-1.2,3H485v-3h3v-2h-8v2h3
			v3h-10.3l-1.2-3h2.5v-2h-8v2h3.3l1.2,3H465c-0.6,0-1,0.4-1,1v26c0,0.6,0.4,1,1,1h7v6h-9v2h42v-2H496z M466,171h36v24h-29h-7V171z
			 M476,197h16v6h-16V197z"/>
		<g>
			<g>
				<path fill="#47BDEF" d="M480,175h-4v4h4V175z"/>
			</g>
			<g>
				<path fill="#47BDEF" d="M480,187h-4v4h4V187z"/>
			</g>
			<g>
				<path fill="#47BDEF" d="M492,175h-4v4h4V175z"/>
			</g>
			<g>
				<polygon fill="#47BDEF" points="486,187 486,183 484,183 484,185 482,185 482,187 484,187 484,187 				"/>
			</g>
			<g>
				<rect x="482" y="177" fill="#47BDEF" width="4" height="2"/>
			</g>
			<g>
				<rect x="476" y="181" fill="#47BDEF" width="2" height="2"/>
			</g>
			<g>
				<polygon fill="#47BDEF" points="484,187 484,189 486,189 486,191 488,191 488,187 				"/>
			</g>
			<g>
				<rect x="478" y="183" fill="#47BDEF" width="4" height="2"/>
			</g>
			<g>
				<rect x="480" y="181" fill="#47BDEF" width="2" height="2"/>
			</g>
			<g>
				<rect x="482" y="179" fill="#47BDEF" width="2" height="2"/>
			</g>
			<g>
				<rect x="482" y="189" fill="#47BDEF" width="2" height="2"/>
			</g>
			<g>
				<rect x="488" y="183" fill="#47BDEF" width="4" height="2"/>
			</g>
			<g>
				<rect x="486" y="181" fill="#47BDEF" width="2" height="2"/>
			</g>
			<g>
				<rect x="488" y="181" fill="#47BDEF" width="2" height="2"/>
			</g>
			<g>
				<rect x="482" y="175" fill="#47BDEF" width="2" height="2"/>
			</g>
			<g>
				<rect x="490" y="187" fill="#47BDEF" width="2" height="4"/>
			</g>
			<g>
				<rect x="488" y="185" fill="#47BDEF" width="2" height="2"/>
			</g>
		</g>
		<g>
			<path fill="#FFFFFF" d="M388,169l3,9.8l8-3V203h26v-27l8,3l3-10l-9-4h-9l-1.5,1.3c-2.6,2.2-6.4,2.2-9,0L406,165h-9L388,169z"/>
			<path fill="#797D80" d="M425,204h-26c-0.6,0-1-0.4-1-1v-25.8l-6.6,2.5c-0.3,0.1-0.5,0.1-0.8,0c-0.2-0.1-0.4-0.3-0.5-0.6l-3-9.8
				c-0.1-0.5,0.1-1,0.5-1.2l9-4c0.1-0.1,0.3-0.1,0.4-0.1h9c0.2,0,0.5,0.1,0.6,0.2l1.5,1.3c2.2,1.8,5.5,1.8,7.7,0l1.5-1.3
				c0.2-0.1,0.4-0.2,0.6-0.2h9c0.1,0,0.3,0,0.4,0.1l9,4c0.5,0.2,0.7,0.7,0.6,1.2l-3,10c-0.1,0.3-0.3,0.5-0.5,0.6
				c-0.2,0.1-0.5,0.1-0.8,0l-6.6-2.5V203C426,203.6,425.6,204,425,204z M400,202h24v-26c0-0.3,0.2-0.6,0.4-0.8
				c0.3-0.2,0.6-0.2,0.9-0.1l7,2.6l2.4-8.1l-8-3.6h-8.4l-1.2,1c-1.4,1.2-3.3,1.9-5.1,1.9s-3.7-0.7-5.1-1.9l-1.2-1h-8.4l-8,3.6
				l2.4,7.9l7-2.6c0.3-0.1,0.7-0.1,0.9,0.1c0.3,0.2,0.4,0.5,0.4,0.8V202z"/>
		</g>
		<g>
			<g>
				<path fill="#47BDEF" d="M408,175h-4v4h4V175z"/>
			</g>
			<g>
				<path fill="#47BDEF" d="M408,187h-4v4h4V187z"/>
			</g>
			<g>
				<path fill="#47BDEF" d="M420,175h-4v4h4V175z"/>
			</g>
			<g>
				<polygon fill="#47BDEF" points="414,187 414,183 412,183 412,185 410,185 410,187 412,187 412,187 				"/>
			</g>
			<g>
				<rect x="410" y="177" fill="#47BDEF" width="4" height="2"/>
			</g>
			<g>
				<rect x="404" y="181" fill="#47BDEF" width="2" height="2"/>
			</g>
			<g>
				<polygon fill="#47BDEF" points="412,187 412,189 414,189 414,191 416,191 416,187 				"/>
			</g>
			<g>
				<rect x="406" y="183" fill="#47BDEF" width="4" height="2"/>
			</g>
			<g>
				<rect x="408" y="181" fill="#47BDEF" width="2" height="2"/>
			</g>
			<g>
				<rect x="410" y="179" fill="#47BDEF" width="2" height="2"/>
			</g>
			<g>
				<rect x="410" y="189" fill="#47BDEF" width="2" height="2"/>
			</g>
			<g>
				<rect x="416" y="183" fill="#47BDEF" width="4" height="2"/>
			</g>
			<g>
				<rect x="414" y="181" fill="#47BDEF" width="2" height="2"/>
			</g>
			<g>
				<rect x="416" y="181" fill="#47BDEF" width="2" height="2"/>
			</g>
			<g>
				<rect x="410" y="175" fill="#47BDEF" width="2" height="2"/>
			</g>
			<g>
				<rect x="418" y="187" fill="#47BDEF" width="2" height="4"/>
			</g>
			<g>
				<rect x="416" y="185" fill="#47BDEF" width="2" height="2"/>
			</g>
		</g>
		<g>
			<rect x="388" y="93" fill="#FFFFFF" width="42" height="27"/>
			<polygon fill="#FFFFFF" points="431,100 431,120 447,120 448,119 448,110 445,100 			"/>
			<g>
				<path fill="#797D80" d="M445,111h-10c-0.6,0-1-0.4-1-1v-7c0-0.6,0.4-1,1-1h8c0.4,0,0.8,0.3,1,0.7l2,7c0.1,0.3,0,0.6-0.2,0.9
					C445.6,110.9,445.3,111,445,111z M436,109h7.7l-1.4-5H436V109z"/>
			</g>
			<path fill="#797D80" d="M449,119v-9c0-0.1,0-0.2,0-0.3l-3-10c-0.1-0.4-0.5-0.7-1-0.7h-14v-6c0-0.6-0.4-1-1-1h-42
				c-0.6,0-1,0.4-1,1v27c0,0.6,0.4,1,1,1h3v5c0,0.6,0.4,1,1,1h8c0,2.8,2.2,5,5,5s5-2.2,5-5h20h3c0,2.8,2.2,5,5,5s5-2.2,5-5h5
				c0.6,0,1-0.4,1-1v-5c0-0.4-0.3-0.8-0.7-0.9l0.4-0.4C448.9,119.5,449,119.3,449,119z M405,130c-1.7,0-3-1.3-3-3s1.3-3,3-3
				s3,1.3,3,3S406.7,130,405,130z M429,125h-19.4c-0.8-1.8-2.5-3-4.6-3s-3.8,1.2-4.6,3H393v-3h12h24V125z M429,119h-40V94h40V119z
				 M438,130c-1.7,0-3-1.3-3-3s1.3-3,3-3s3,1.3,3,3S439.7,130,438,130z M447,125h-4.4c-0.8-1.8-2.5-3-4.6-3s-3.8,1.2-4.6,3H431v-3h7
				h9V125z M447,118.6l-0.4,0.4H432v-18h12.3l2.7,9.1V118.6z"/>
			<g>
				<g>
					<path fill="#47BDEF" d="M405,98h-4v4h4V98z"/>
				</g>
				<g>
					<path fill="#47BDEF" d="M405,110h-4v4h4V110z"/>
				</g>
				<g>
					<path fill="#47BDEF" d="M417,98h-4v4h4V98z"/>
				</g>
				<g>
					<polygon fill="#47BDEF" points="411,110 411,106 409,106 409,108 407,108 407,110 409,110 409,110 					"/>
				</g>
				<g>
					<rect x="407" y="100" fill="#47BDEF" width="4" height="2"/>
				</g>
				<g>
					<rect x="401" y="104" fill="#47BDEF" width="2" height="2"/>
				</g>
				<g>
					<polygon fill="#47BDEF" points="409,110 409,112 411,112 411,114 413,114 413,110 					"/>
				</g>
				<g>
					<rect x="403" y="106" fill="#47BDEF" width="4" height="2"/>
				</g>
				<g>
					<rect x="405" y="104" fill="#47BDEF" width="2" height="2"/>
				</g>
				<g>
					<rect x="407" y="102" fill="#47BDEF" width="2" height="2"/>
				</g>
				<g>
					<rect x="407" y="112" fill="#47BDEF" width="2" height="2"/>
				</g>
				<g>
					<rect x="413" y="106" fill="#47BDEF" width="4" height="2"/>
				</g>
				<g>
					<rect x="411" y="104" fill="#47BDEF" width="2" height="2"/>
				</g>
				<g>
					<rect x="413" y="104" fill="#47BDEF" width="2" height="2"/>
				</g>
				<g>
					<rect x="407" y="98" fill="#47BDEF" width="2" height="2"/>
				</g>
				<g>
					<rect x="415" y="110" fill="#47BDEF" width="2" height="4"/>
				</g>
				<g>
					<rect x="413" y="108" fill="#47BDEF" width="2" height="2"/>
				</g>
			</g>
		</g>
		<g>
			<g>
				<path fill="#797D80" d="M64.6,92.2C64.4,92,64.1,92,63.8,92L49,95l-14.8-3c-0.1,0-0.1,0-0.2,0c-0.1,0-0.1,0-0.2,0l-16,3
					c-0.5,0.1-0.8,0.5-0.8,1v39c0,0.3,0.1,0.6,0.4,0.8c0.2,0.2,0.4,0.2,0.6,0.2c0.1,0,0.1,0,0.2,0l15.8-3l14.8,3c0.1,0,0.1,0,0.2,0
					s0.1,0,0.2,0l15-3c0.5-0.1,0.8-0.5,0.8-1V93C65,92.7,64.9,92.4,64.6,92.2z M19,96.8l14-2.6v37l-14,2.6V96.8z M35,94.2l13,2.6v37
					l-13-2.6V94.2z M63,131.2l-13,2.6v-37l13-2.6V131.2z"/>
			</g>
			<g>
				<rect x="101" y="117" fill="#FFFFFF" width="33" height="18"/>
				<path fill="#797D80" d="M134,116h-16V93c0-0.6-0.4-1-1-1H88c-0.6,0-1,0.4-1,1v41c0,0.6,0.4,1,1,1h12c0,0.6,0.4,1,1,1h33
					c0.6,0,1-0.4,1-1v-18C135,116.4,134.6,116,134,116z M89,133V94h27v22h-15c-0.6,0-1,0.4-1,1v16H89z M133,134h-31v-16h31V134z"/>
			</g>
			<g>
				<path fill="#797D80" d="M60,190H28c-0.6,0-1-0.4-1-1v-21c0-0.6,0.4-1,1-1h32c0.6,0,1,0.4,1,1v21C61,189.6,60.6,190,60,190z
					 M29,188h30v-19H29V188z"/>
			</g>
			<g>
				<path fill="#47BDEF" d="M114,96h-5v5h5V96z"/>
			</g>
			<g>
				<path fill="#47BDEF" d="M61,124l-5,1v5l5-1V124z"/>
			</g>
			<g>
				<path fill="#47BDEF" d="M108,128h-4v4h4V128z"/>
			</g>
			<g>
				<path fill="#47BDEF" d="M56,180h-6v6h6V180z"/>
			</g>
			<g>
				<path fill="#797D80" d="M44,173H32v2h12V173z"/>
			</g>
			<g>
				<path fill="#797D80" d="M44,184H32v2h12V184z"/>
			</g>
			<g>
				<path fill="#797D80" d="M44,180H32v2h12V180z"/>
			</g>
			<g>
				<path fill="#797D80" d="M130,131h-6v1h6V131z"/>
			</g>
			<g>
				<path fill="#797D80" d="M130,129h-6v1h6V129z"/>
			</g>
			<g>
				<path fill="#797D80" d="M130,127h-6v1h6V127z"/>
			</g>
			<g>
				<path fill="#797D80" d="M122,125h-2v1h2V125z"/>
			</g>
		</g>
		<g>
			<g>
				<path fill="#797D80" d="M99,197H88c-0.6,0-1-0.4-1-1v-10c0-0.3,0.1-0.5,0.3-0.7l0.3-0.3l-0.3-0.3c-0.2-0.2-0.3-0.4-0.3-0.7v-15
					c0-0.6,0.4-1,1-1h11c0.6,0,1,0.4,1,1v15c0,0.3-0.1,0.5-0.3,0.7l-0.3,0.3l0.3,0.3c0.2,0.2,0.3,0.4,0.3,0.7v10
					C100,196.6,99.6,197,99,197z M89,195h9v-8.6l-0.7-0.7c-0.4-0.4-0.4-1,0-1.4l0.7-0.7V170h-9v13.6l0.7,0.7c0.4,0.4,0.4,1,0,1.4
					l-0.7,0.7V195z"/>
			</g>
			<g opacity="0.5">
				<line fill="#FFFFFF" x1="98" y1="185" x2="89" y2="185"/>
				<rect x="89" y="184" fill="#797D80" width="9" height="2"/>
			</g>
			<g>
				<path fill="#47BDEF" d="M96,193v-5h-5v5H96z"/>
			</g>
		</g>
		<g>
			<g>
				<polygon fill="#FFFFFF" points="114.9,176.9 107.1,169.1 96.5,179.7 96.5,181.2 95.1,181.2 88,188.2 95.8,196 102.8,188.9 
					102.8,187.5 104.3,187.5 				"/>
				
					<rect x="98.7" y="179.8" transform="matrix(0.7071 -0.7071 0.7071 0.7071 -101.1508 124.4653)" fill="#797D80" width="2" height="9"/>
				<path fill="#797D80" d="M95.8,197c-0.3,0-0.5-0.1-0.7-0.3l-7.8-7.8c-0.4-0.4-0.4-1,0-1.4l7.1-7.1c0.2-0.2,0.4-0.3,0.7-0.3h0.4
					v-0.4c0-0.3,0.1-0.5,0.3-0.7l10.6-10.6c0.4-0.4,1-0.4,1.4,0l7.8,7.8c0.4,0.4,0.4,1,0,1.4L105,188.2c-0.2,0.2-0.4,0.3-0.7,0.3
					h-0.4v0.4c0,0.3-0.1,0.5-0.3,0.7l-7.1,7.1C96.3,196.9,96,197,95.8,197z M89.4,188.2l6.4,6.4l6.1-6.1v-1c0-0.6,0.4-1,1-1h1
					l9.6-9.6l-6.4-6.4l-9.6,9.6v1c0,0.6-0.4,1-1,1h-1L89.4,188.2z"/>
			</g>
			<g>
				<path fill="#47BDEF" d="M95.8,191.8l3.5-3.5l-3.5-3.5l-3.5,3.5L95.8,191.8z"/>
			</g>
		</g>
		<g>
			<g>
				<polygon fill="#FFFFFF" points="115,196 115,185 100,185 99,186 98,185 88,185 88,196 98,196 99,195 100,196 				"/>
				<path fill="#797D80" d="M115,197h-15c-0.3,0-0.5-0.1-0.7-0.3l-0.3-0.3l-0.3,0.3c-0.2,0.2-0.4,0.3-0.7,0.3H88c-0.6,0-1-0.4-1-1
					v-11c0-0.6,0.4-1,1-1h10c0.3,0,0.5,0.1,0.7,0.3l0.3,0.3l0.3-0.3c0.2-0.2,0.4-0.3,0.7-0.3h15c0.6,0,1,0.4,1,1v11
					C116,196.6,115.6,197,115,197z M100.4,195H114v-9h-13.6l-0.7,0.7c-0.4,0.4-1,0.4-1.4,0l-0.7-0.7H89v9h8.6l0.7-0.7
					c0.4-0.4,1-0.4,1.4,0L100.4,195z"/>
			</g>
			<g opacity="0.5">
				<line fill="#FFFFFF" x1="99" y1="195" x2="99" y2="186"/>
			</g>
			<g>
				<path fill="#47BDEF" d="M91,193h5v-5h-5V193z"/>
			</g>
			<rect x="98" y="186" fill="#797D80" width="2" height="9"/>
		</g>
		<g>
			<g>
				<path fill="#FFFFFF" d="M493,132h-18c-0.5,0-0.9-0.4-1-0.9l-0.9-7.1H473c-0.5,0-0.9-0.4-1-0.9l-2-16c0-0.3,0.1-0.6,0.2-0.8
					c0.2-0.2,0.4-0.3,0.6-0.3l-0.8-6H470c-0.4,0-0.7-0.2-0.9-0.6l-1-2c-0.1-0.3-0.1-0.6,0-0.9l2-4c0.2-0.3,0.5-0.6,0.9-0.6h1.6
					l0.7-0.7c0.2-0.2,0.4-0.3,0.6-0.3l19-2c0.4,0,0.7,0.1,0.9,0.4l1.7,2.6h1.5c0.4,0,0.7,0.2,0.9,0.6l2,4c0.1,0.3,0.1,0.6,0,0.9
					l-1,2c-0.2,0.3-0.5,0.6-0.9,0.6h-0.1l-0.8,6c0.2,0,0.5,0.1,0.6,0.3c0.2,0.2,0.3,0.5,0.2,0.8l-2,16c-0.1,0.5-0.5,0.9-1,0.9h-0.1
					l-0.9,7.1C493.9,131.6,493.5,132,493,132z"/>
			</g>
			<path fill="#797D80" d="M499.9,96.6l-2-4c-0.2-0.3-0.5-0.6-0.9-0.6h-1.5l-1.7-2.6c-0.2-0.3-0.6-0.5-0.9-0.4l-19,2
				c-0.2,0-0.4,0.1-0.6,0.3l-0.7,0.7H471c-0.4,0-0.7,0.2-0.9,0.6l-2,4c-0.1,0.3-0.1,0.6,0,0.9l1,2c0.2,0.3,0.5,0.6,0.9,0.6h0.1
				l0.8,6c-0.2,0-0.5,0.1-0.6,0.3c-0.2,0.2-0.3,0.5-0.2,0.8l2,16c0.1,0.5,0.5,0.9,1,0.9h0.1l0.9,7.1c0.1,0.5,0.5,0.9,1,0.9h18
				c0.5,0,0.9-0.4,1-0.9l0.9-7.1h0.1c0.5,0,0.9-0.4,1-0.9l2-16c0-0.3-0.1-0.6-0.2-0.8c-0.2-0.2-0.4-0.3-0.6-0.3l0.8-6h0.1
				c0.4,0,0.7-0.2,0.9-0.6l1-2C500,97.2,500,96.8,499.9,96.6z M492.5,91.1l1.3,1.9h-19.4l0,0L492.5,91.1z M492.1,130h-16.2l-0.8-6
				h17.7L492.1,130z M494.1,122H494h-20.1l-1.8-14h23.7L494.1,122z M495.1,106h-22.2l-0.8-6h23.7L495.1,106z M497.4,98H497h-26.4
				l-0.5-1l1.5-3h0.4h1h22h1h0.4l1.5,3L497.4,98z"/>
		</g>
		<g>
			<path fill="#47BDEF" d="M488,111h-8v8h8V111z"/>
		</g>
		<g>
			<g>
				<path fill="#47BDEF" d="M454.9,12.8c0-0.3-0.1-0.5-0.3-0.7s-0.5-0.3-1-0.5c-0.8-0.2-1.5-0.5-1.9-0.9c-0.4-0.3-0.6-0.8-0.6-1.4
					s0.2-1.1,0.7-1.4c0.5-0.4,1.1-0.6,1.9-0.6c0.8,0,1.4,0.2,1.9,0.6c0.5,0.4,0.7,0.9,0.7,1.5l0,0h-1.4c0-0.3-0.1-0.6-0.3-0.8
					c-0.2-0.2-0.5-0.3-0.9-0.3c-0.4,0-0.7,0.1-0.9,0.3c-0.2,0.2-0.3,0.4-0.3,0.6c0,0.2,0.1,0.4,0.3,0.6c0.2,0.2,0.6,0.3,1.2,0.5
					c0.8,0.2,1.4,0.5,1.8,0.9c0.4,0.4,0.6,0.8,0.6,1.4c0,0.6-0.2,1.1-0.7,1.4s-1.1,0.5-1.9,0.5c-0.8,0-1.4-0.2-2-0.6
					c-0.6-0.4-0.9-1-0.8-1.7l0,0h1.4c0,0.4,0.1,0.7,0.4,0.9c0.3,0.2,0.6,0.3,1.1,0.3c0.4,0,0.7-0.1,0.9-0.2S454.9,13.1,454.9,12.8z"
					/>
				<path fill="#47BDEF" d="M459.8,12.8l0.1,0.4h0l0.1-0.4l1.5-5.2h1.5l-2.4,7.1h-1.5l-2.4-7.1h1.5L459.8,12.8z"/>
				<path fill="#47BDEF" d="M469.1,13.7c-0.2,0.3-0.5,0.5-1,0.7c-0.4,0.2-1,0.3-1.7,0.3c-0.9,0-1.6-0.3-2.1-0.8
					c-0.6-0.5-0.8-1.2-0.8-2.1v-1.5c0-0.9,0.3-1.6,0.8-2.1c0.5-0.5,1.2-0.8,2-0.8c0.9,0,1.5,0.2,2,0.6c0.5,0.4,0.7,1,0.7,1.7l0,0
					h-1.3c0-0.4-0.1-0.7-0.4-0.9c-0.2-0.2-0.5-0.3-0.9-0.3c-0.4,0-0.8,0.2-1.1,0.5c-0.3,0.3-0.4,0.8-0.4,1.3v1.5
					c0,0.5,0.1,1,0.4,1.3c0.3,0.3,0.7,0.5,1.1,0.5c0.3,0,0.6,0,0.8-0.1c0.2-0.1,0.4-0.2,0.5-0.3V12h-1.3v-1h2.7V13.7z"/>
			</g>
			<g>
				<path fill="#47BDEF" d="M424,51L424,51c0-4.4,3.6-8,8-8l0,0c4.4,0,8,3.6,8,8v0c0,4.4-3.6,8-8,8l0,0C427.6,59,424,55.4,424,51z"
					/>
			</g>
			<g>
				<path fill="#47BDEF" d="M452,27L452,27c0-4.4,3.6-8,8-8l0,0c4.4,0,8,3.6,8,8v0c0,4.4-3.6,8-8,8l0,0C455.6,35,452,31.4,452,27z"
					/>
			</g>
			<g>
				<path fill="#47BDEF" d="M427.7,35.5h-2.9v2h3.4v1.1h-4.9v-7.1h4.9v1.1h-3.4v1.8h2.9V35.5z"/>
				<path fill="#47BDEF" d="M430.5,36.1v2.6h-1.4v-7.1h2.8c0.8,0,1.5,0.2,1.9,0.6s0.7,1,0.7,1.6s-0.2,1.2-0.7,1.6s-1.1,0.6-1.9,0.6
					H430.5z M430.5,35h1.4c0.4,0,0.7-0.1,0.9-0.3c0.2-0.2,0.3-0.5,0.3-0.8c0-0.3-0.1-0.6-0.3-0.8c-0.2-0.2-0.5-0.3-0.9-0.3h-1.4V35z
					"/>
				<path fill="#47BDEF" d="M439.5,36.8c0-0.3-0.1-0.5-0.3-0.7c-0.2-0.2-0.5-0.3-1-0.5c-0.8-0.2-1.5-0.5-1.9-0.9
					c-0.4-0.3-0.7-0.8-0.7-1.4s0.2-1.1,0.7-1.4c0.5-0.4,1.1-0.6,1.9-0.6c0.8,0,1.4,0.2,1.9,0.6c0.5,0.4,0.7,0.9,0.7,1.5l0,0h-1.4
					c0-0.3-0.1-0.6-0.3-0.8c-0.2-0.2-0.5-0.3-0.9-0.3c-0.4,0-0.7,0.1-0.9,0.3c-0.2,0.2-0.3,0.4-0.3,0.6c0,0.2,0.1,0.4,0.3,0.6
					c0.2,0.2,0.6,0.3,1.2,0.5c0.8,0.2,1.4,0.5,1.8,0.9c0.4,0.4,0.6,0.8,0.6,1.4c0,0.6-0.2,1.1-0.7,1.4c-0.5,0.4-1.1,0.5-1.9,0.5
					c-0.8,0-1.5-0.2-2-0.6c-0.6-0.4-0.9-1-0.8-1.7l0,0h1.4c0,0.4,0.1,0.7,0.4,0.9c0.3,0.2,0.6,0.3,1.1,0.3c0.4,0,0.7-0.1,0.9-0.2
					S439.5,37.1,439.5,36.8z"/>
			</g>
		</g>
		<g>
			<g>
				<path fill="#47BDEF" d="M81.9,12.1v2.6h-1.4V7.6h2.8c0.8,0,1.5,0.2,1.9,0.6s0.7,1,0.7,1.6s-0.2,1.2-0.7,1.6s-1.1,0.6-1.9,0.6
					H81.9z M81.9,11h1.4c0.4,0,0.7-0.1,0.9-0.3c0.2-0.2,0.3-0.5,0.3-0.8c0-0.3-0.1-0.6-0.3-0.8c-0.2-0.2-0.5-0.3-0.9-0.3h-1.4V11z"
					/>
				<path fill="#47BDEF" d="M92.8,14.7h-1.4l-2.9-4.9l0,0v4.9H87V7.6h1.4l2.9,4.9l0,0V7.6h1.4V14.7z"/>
				<path fill="#47BDEF" d="M99.6,13.7c-0.2,0.3-0.5,0.5-1,0.7s-1,0.3-1.7,0.3c-0.9,0-1.6-0.3-2.1-0.8c-0.5-0.5-0.8-1.2-0.8-2.1
					v-1.5c0-0.9,0.3-1.6,0.8-2.1c0.5-0.5,1.2-0.8,2-0.8c0.9,0,1.5,0.2,2,0.6c0.5,0.4,0.7,1,0.7,1.7l0,0h-1.3c0-0.4-0.1-0.7-0.4-0.9
					c-0.2-0.2-0.5-0.3-0.9-0.3c-0.4,0-0.8,0.2-1.1,0.5c-0.3,0.3-0.4,0.8-0.4,1.3v1.5c0,0.5,0.1,1,0.4,1.3c0.3,0.3,0.6,0.5,1.1,0.5
					c0.3,0,0.6,0,0.8-0.1c0.2-0.1,0.4-0.2,0.5-0.3V12h-1.3v-1h2.7V13.7z"/>
			</g>
			<g>
				<path fill="#47BDEF" d="M56.2,31.6h1.4v5c0,0.7-0.2,1.2-0.7,1.6c-0.4,0.4-1,0.6-1.7,0.6c-0.7,0-1.3-0.2-1.8-0.5
					c-0.4-0.4-0.6-0.9-0.6-1.6l0,0h1.4c0,0.4,0.1,0.6,0.3,0.8c0.2,0.2,0.4,0.3,0.7,0.3c0.3,0,0.5-0.1,0.7-0.3
					c0.2-0.2,0.3-0.5,0.3-0.8V31.6z"/>
				<path fill="#47BDEF" d="M60.3,36.1v2.6h-1.4v-7.1h2.8c0.8,0,1.5,0.2,1.9,0.6s0.7,1,0.7,1.6s-0.2,1.2-0.7,1.6s-1.1,0.6-1.9,0.6
					H60.3z M60.3,35h1.4c0.4,0,0.7-0.1,0.9-0.3c0.2-0.2,0.3-0.5,0.3-0.8c0-0.3-0.1-0.6-0.3-0.8c-0.2-0.2-0.5-0.3-0.9-0.3h-1.4V35z"
					/>
				<path fill="#47BDEF" d="M70.9,37.7c-0.2,0.3-0.5,0.5-1,0.7s-1,0.3-1.7,0.3c-0.9,0-1.6-0.3-2.1-0.8c-0.5-0.5-0.8-1.2-0.8-2.1
					v-1.5c0-0.9,0.3-1.6,0.8-2.1c0.5-0.5,1.2-0.8,2-0.8c0.9,0,1.5,0.2,2,0.6c0.5,0.4,0.7,1,0.7,1.7l0,0h-1.3c0-0.4-0.1-0.7-0.4-0.9
					c-0.2-0.2-0.5-0.3-0.9-0.3c-0.4,0-0.8,0.2-1.1,0.5c-0.3,0.3-0.4,0.8-0.4,1.3v1.5c0,0.5,0.1,1,0.4,1.3c0.3,0.3,0.6,0.5,1.1,0.5
					c0.3,0,0.6,0,0.8-0.1c0.2-0.1,0.4-0.2,0.5-0.3V36h-1.3v-1h2.7V37.7z"/>
			</g>
			<g>
				<g opacity="0.75">
					<rect x="94" y="21" transform="matrix(4.547455e-11 1 -1 4.547455e-11 117 -73)" fill="#47BDEF" width="2" height="2"/>
				</g>
				<g opacity="0.75">
					<rect x="92" y="19" transform="matrix(4.001758e-11 1 -1 4.001758e-11 113 -73)" fill="#47BDEF" width="2" height="2"/>
				</g>
				<g opacity="0.75">
					<rect x="96" y="23" transform="matrix(4.001758e-11 1 -1 4.001758e-11 121 -73)" fill="#47BDEF" width="2" height="2"/>
				</g>
				<g opacity="0.25">
					<rect x="94" y="19" transform="matrix(4.547455e-11 1 -1 4.547455e-11 115 -75)" fill="#47BDEF" width="2" height="2"/>
				</g>
				<g opacity="0.25">
					<rect x="96" y="21" transform="matrix(4.547455e-11 1 -1 4.547455e-11 119 -75)" fill="#47BDEF" width="2" height="2"/>
				</g>
				<g opacity="0.75">
					<rect x="94" y="31" transform="matrix(-1 9.003985e-11 -9.003985e-11 -1 190 64)" fill="#47BDEF" width="2" height="2"/>
				</g>
				<g opacity="0.75">
					<rect x="96" y="29" transform="matrix(-1 8.458288e-11 -8.458288e-11 -1 194 60)" fill="#47BDEF" width="2" height="2"/>
				</g>
				<g opacity="0.75">
					<rect x="92" y="33" transform="matrix(-1 8.913036e-11 -8.913036e-11 -1 186 68)" fill="#47BDEF" width="2" height="2"/>
				</g>
				<g opacity="0.25">
					<rect x="96" y="31" transform="matrix(-1 9.003985e-11 -9.003985e-11 -1 194 64)" fill="#47BDEF" width="2" height="2"/>
				</g>
				<g opacity="0.25">
					<rect x="94" y="33" transform="matrix(-1 9.003985e-11 -9.003985e-11 -1 190 68)" fill="#47BDEF" width="2" height="2"/>
				</g>
				<g opacity="0.75">
					<rect x="84" y="31" transform="matrix(-1.300577e-10 -1 1 -1.300577e-10 53 117)" fill="#47BDEF" width="2" height="2"/>
				</g>
				<g opacity="0.75">
					<rect x="86" y="33" transform="matrix(-1.346052e-10 -1 1 -1.346052e-10 53 121)" fill="#47BDEF" width="2" height="2"/>
				</g>
				<g opacity="0.75">
					<rect x="82" y="29" transform="matrix(-1.300577e-10 -1 1 -1.300577e-10 53 113)" fill="#47BDEF" width="2" height="2"/>
				</g>
				<g opacity="0.25">
					<rect x="84" y="33" transform="matrix(-1.346052e-10 -1 1 -1.346052e-10 51 119)" fill="#47BDEF" width="2" height="2"/>
				</g>
				<g opacity="0.25">
					<rect x="82" y="31" transform="matrix(-1.300577e-10 -1 1 -1.300577e-10 51 115)" fill="#47BDEF" width="2" height="2"/>
				</g>
				<g opacity="0.75">
					<rect x="84" y="21" fill="#47BDEF" width="2" height="2"/>
				</g>
				<g>
					<polygon fill="#47BDEF" points="96,25 96,23 94,23 94,21 92,21 92,19 90,19 88,19 88,21 86,21 86,23 84,23 84,25 82,25 82,27 
						82,29 84,29 84,31 86,31 86,33 88,33 88,35 90,35 92,35 92,33 94,33 94,31 96,31 96,29 98,29 98,27 98,25 					"/>
				</g>
				<g opacity="0.75">
					<rect x="82" y="23" fill="#47BDEF" width="2" height="2"/>
				</g>
				<g opacity="0.75">
					<rect x="86" y="19" fill="#47BDEF" width="2" height="2"/>
				</g>
				<g opacity="0.25">
					<rect x="82" y="21" fill="#47BDEF" width="2" height="2"/>
				</g>
				<g opacity="0.25">
					<rect x="84" y="19" fill="#47BDEF" width="2" height="2"/>
				</g>
			</g>
			<g>
				<g opacity="0.75">
					<rect x="66" y="45" transform="matrix(4.547455e-11 1 -1 4.547455e-11 113 -21)" fill="#47BDEF" width="2" height="2"/>
				</g>
				<g opacity="0.75">
					<rect x="64" y="43" transform="matrix(4.001758e-11 1 -1 4.001758e-11 109 -21)" fill="#47BDEF" width="2" height="2"/>
				</g>
				<g opacity="0.75">
					<rect x="68" y="47" transform="matrix(4.001758e-11 1 -1 4.001758e-11 117 -21)" fill="#47BDEF" width="2" height="2"/>
				</g>
				<g opacity="0.25">
					<rect x="66" y="43" transform="matrix(4.547455e-11 1 -1 4.547455e-11 111 -23)" fill="#47BDEF" width="2" height="2"/>
				</g>
				<g opacity="0.25">
					<rect x="68" y="45" transform="matrix(4.547455e-11 1 -1 4.547455e-11 115 -23)" fill="#47BDEF" width="2" height="2"/>
				</g>
				<g opacity="0.75">
					<rect x="66" y="55" transform="matrix(-1 9.003985e-11 -9.003985e-11 -1 134 112)" fill="#47BDEF" width="2" height="2"/>
				</g>
				<g opacity="0.75">
					<rect x="68" y="53" transform="matrix(-1 8.458288e-11 -8.458288e-11 -1 138 108)" fill="#47BDEF" width="2" height="2"/>
				</g>
				<g opacity="0.75">
					<rect x="64" y="57" transform="matrix(-1 8.913036e-11 -8.913036e-11 -1 130 116)" fill="#47BDEF" width="2" height="2"/>
				</g>
				<g opacity="0.25">
					<rect x="68" y="55" transform="matrix(-1 9.003985e-11 -9.003985e-11 -1 138 112)" fill="#47BDEF" width="2" height="2"/>
				</g>
				<g opacity="0.25">
					<rect x="66" y="57" transform="matrix(-1 9.003985e-11 -9.003985e-11 -1 134 116)" fill="#47BDEF" width="2" height="2"/>
				</g>
				<g opacity="0.75">
					<rect x="56" y="55" transform="matrix(-1.300577e-10 -1 1 -1.300577e-10 1 113)" fill="#47BDEF" width="2" height="2"/>
				</g>
				<g opacity="0.75">
					<rect x="58" y="57" transform="matrix(-1.346052e-10 -1 1 -1.346052e-10 1 117)" fill="#47BDEF" width="2" height="2"/>
				</g>
				<g opacity="0.75">
					<rect x="54" y="53" transform="matrix(-1.300577e-10 -1 1 -1.300577e-10 1 109)" fill="#47BDEF" width="2" height="2"/>
				</g>
				<g opacity="0.25">
					<rect x="56" y="57" transform="matrix(-1.346052e-10 -1 1 -1.346052e-10 -1 115)" fill="#47BDEF" width="2" height="2"/>
				</g>
				<g opacity="0.25">
					<rect x="54" y="55" transform="matrix(-1.300577e-10 -1 1 -1.300577e-10 -1 111)" fill="#47BDEF" width="2" height="2"/>
				</g>
				<g opacity="0.75">
					<rect x="56" y="45" fill="#47BDEF" width="2" height="2"/>
				</g>
				<g>
					<polygon fill="#47BDEF" points="68,49 68,47 66,47 66,45 64,45 64,43 62,43 60,43 60,45 58,45 58,47 56,47 56,49 54,49 54,51 
						54,53 56,53 56,55 58,55 58,57 60,57 60,59 62,59 64,59 64,57 66,57 66,55 68,55 68,53 70,53 70,51 70,49 					"/>
				</g>
				<g opacity="0.75">
					<rect x="54" y="47" fill="#47BDEF" width="2" height="2"/>
				</g>
				<g opacity="0.75">
					<rect x="58" y="43" fill="#47BDEF" width="2" height="2"/>
				</g>
				<g opacity="0.25">
					<rect x="54" y="45" fill="#47BDEF" width="2" height="2"/>
				</g>
				<g opacity="0.25">
					<rect x="56" y="43" fill="#47BDEF" width="2" height="2"/>
				</g>
			</g>
		</g>
	</g>
	<rect x="311" y="79" fill="#797D80" width="2" height="38"/>
	<rect x="209" y="79" fill="#797D80" width="2" height="38"/>
	<path fill="#797D80" d="M311,137v41H211v-41h-2v42c0,0.6,0.4,1,1,1h102c0.6,0,1-0.4,1-1v-42H311z"/>
	<path fill="#797D80" d="M345,64V51.5c0-3.8-1.7-7.4-4.5-9.9l-8.7-7.4c-0.9-0.8-2.1-1.2-3.3-1.2H319V14c0-0.6-0.4-1-1-1h-4
		c-0.6,0-1,0.4-1,1v2h-2V2c0-0.6-0.4-1-1-1h-98c-0.6,0-1,0.4-1,1v14h-2v-2c0-0.6-0.4-1-1-1h-4c-0.6,0-1,0.4-1,1v19h-9.5
		c-1.2,0-2.3,0.4-3.3,1.2l-8.7,7.4c-2.9,2.5-4.5,6.1-4.5,9.9V64c0,0.6,0.4,1,1,1h1l-1.8,2.4c-0.1,0.2-0.2,0.4-0.2,0.6v22
		c0,3.9,3.1,7,7,7h19c0.2,0,0.3,0,0.4-0.1l0,0l3.8-1.9h3.8v-2h-3V79.1c0.3-0.1,0.7-0.1,1-0.1h104c0.3,0,0.7,0,1,0.1V93h-3v2h3.8
		l3.8,1.9l0,0c0.1,0.1,0.3,0.1,0.4,0.1h19c3.9,0,7-3.1,7-7V68c0-0.2-0.1-0.4-0.2-0.6L343,65h1C344.6,65,345,64.6,345,64z M315,15h2
		v21h-2V15z M311,18h2v18h-2V18z M213,3h96v33h-96V3z M209,18h2v18h-2V18z M205,15h2v21h-2V15z M206,93.4l-2,1V84c0-1.6,0.8-3.1,2-4
		V93.4z M318,94.4l-2-1V80c1.2,0.9,2,2.3,2,4V94.4z M343,90c0,2.8-2.2,5-5,5h-18V84c0-3.9-3.1-7-7-7H209c-3.9,0-7,3.1-7,7v11h-18
		c-2.8,0-5-2.2-5-5V68.3l2.5-3.3h159l2.5,3.3V90z M343,63H179V51.5c0-3.2,1.4-6.3,3.8-8.4l8.7-7.4c0.5-0.5,1.2-0.7,2-0.7h9.5v1h-1
		c-0.6,0-1,0.4-1,1s0.4,1,1,1h118c0.6,0,1-0.4,1-1s-0.4-1-1-1h-1v-1h9.5c0.7,0,1.4,0.3,2,0.7l8.7,7.4c2.4,2.1,3.8,5.1,3.8,8.4V63z"
		/>
</g>
<path fill="#797D80" d="M414,64c0,0.6,0.4,1,1,1h34c0.6,0,1-0.4,1-1V41h27c0.6,0,1-0.4,1-1V10c0-0.3-0.1-0.5-0.3-0.7l-8-8
	C469.5,1.1,469.3,1,469,1h-26c-0.6,0-1,0.4-1,1v23.6l-0.3-0.3c-0.2-0.2-0.4-0.3-0.7-0.3h-26c-0.6,0-1,0.4-1,1V64z M444,3h24.6
	l7.4,7.4V39h-26v-5c0-0.3-0.1-0.5-0.3-0.7l-5.7-5.7V3z M416,27h24.6l7.4,7.4V63h-32V27z"/>
<path fill="#797D80" d="M44,64c0,0.6,0.4,1,1,1h34c0.6,0,1-0.4,1-1V41h27c0.6,0,1-0.4,1-1V10c0-0.3-0.1-0.5-0.3-0.7l-8-8
	C99.5,1.1,99.3,1,99,1H73c-0.6,0-1,0.4-1,1v23.6l-0.3-0.3C71.5,25.1,71.3,25,71,25H45c-0.6,0-1,0.4-1,1V64z M74,3h24.6l7.4,7.4V39
	H80v-5c0-0.3-0.1-0.5-0.3-0.7L74,27.6V3z M46,27h24.6l7.4,7.4V63H46V27z"/>
<path fill="#47BDEF" d="M518,31h-38v2h38c0.6,0,1,0.4,1,1v186c0,0.6-0.4,1-1,1H374c-0.6,0-1-0.4-1-1V34c0-0.6,0.4-1,1-1h38v-2h-38
	c-1.7,0-3,1.3-3,3v92h-51h-0.1c-0.5-4.1-4.1-7.2-8.4-7c-4.1,0.2-7.4,3.7-7.6,7.8c-0.1,4.5,3.5,8.2,8,8.2c4.1,0,7.4-3.1,7.9-7h0.1h51
	v92c0,1.7,1.3,3,3,3h144c1.7,0,3-1.3,3-3V34C521,32.3,519.7,31,518,31z M312,133c-3.3,0-6-2.7-6-6s2.7-6,6-6s6,2.7,6,6
	S315.3,133,312,133z"/>
<path fill="#47BDEF" d="M210.4,119c-4.3-0.2-7.9,2.9-8.4,7H202h-51V34c0-1.7-1.3-3-3-3h-38v2h38c0.6,0,1,0.4,1,1v186
	c0,0.6-0.4,1-1,1H4c-0.6,0-1-0.4-1-1V34c0-0.6,0.4-1,1-1h38v-2H4c-1.7,0-3,1.3-3,3v186c0,1.7,1.3,3,3,3h144c1.7,0,3-1.3,3-3v-92h51
	h0.1c0.5,3.9,3.9,7,7.9,7c4.5,0,8.1-3.7,8-8.2C217.9,122.7,214.5,119.2,210.4,119z M210,133c-3.3,0-6-2.7-6-6s2.7-6,6-6s6,2.7,6,6
	S213.3,133,210,133z"/>
<g>
	<g>
		<g>
			<path fill="#47BDEF" d="M231,98h-4c-0.6,0-1-0.4-1-1v-4c0-0.6,0.4-1,1-1h4c0.6,0,1,0.4,1,1v4C232,97.6,231.6,98,231,98z"/>
		</g>
		<g>
			<path fill="#47BDEF" d="M231,162h-4c-0.6,0-1-0.4-1-1v-4c0-0.6,0.4-1,1-1h4c0.6,0,1,0.4,1,1v4C232,161.6,231.6,162,231,162z"/>
		</g>
		<g>
			<polygon fill="#47BDEF" points="263,93 263,89 263,85 255,85 255,89 259,89 259,101 263,101 263,97 271,97 271,93 			"/>
			<polygon fill="#47BDEF" points="283,125 291,125 291,121 283,121 279,121 275,121 275,125 279,125 279,133 283,133 			"/>
			<polygon fill="#47BDEF" points="291,129 287,129 287,133 295,133 295,129 299,129 299,137 303,137 303,125 291,125 			"/>
			<polygon fill="#47BDEF" points="295,109 283,109 283,113 279,113 279,117 287,117 287,113 291,113 291,117 295,117 295,121 
				303,121 303,117 299,117 299,113 295,113 			"/>
			<rect x="275" y="105" fill="#47BDEF" width="4" height="8"/>
			<polygon fill="#47BDEF" points="251,109 255,109 255,113 259,113 259,105 251,105 251,97 255,97 255,93 243,93 243,97 247,97 
				247,101 243,101 243,105 247,105 247,109 239,109 239,113 251,113 			"/>
			<rect x="219" y="109" fill="#47BDEF" width="8" height="4"/>
			<rect x="227" y="113" fill="#47BDEF" width="4" height="4"/>
			<rect x="299" y="165" fill="#47BDEF" width="4" height="4"/>
			<rect x="251" y="165" fill="#47BDEF" width="12" height="4"/>
			<rect x="243" y="165" fill="#47BDEF" width="4" height="4"/>
			<rect x="243" y="145" fill="#47BDEF" width="4" height="8"/>
			<polygon fill="#47BDEF" points="247,157 243,157 243,161 247,161 247,165 251,165 251,153 247,153 			"/>
			<rect x="299" y="109" fill="#47BDEF" width="4" height="4"/>
			<rect x="287" y="145" fill="#47BDEF" width="4" height="4"/>
			<path fill="#47BDEF" d="M279,137v-4h-4v8h4v4h-4v4h-4v4h-4v4h-8v-4h4v-4h4v-4h4v-4h-8v4h-4v4h-8v4h4v8h12v4h4v4h12v-4h4v-4h-8v4
				h-4v-4h-4v-4h4v-4h4v4h16v4h-4v4h8v-4h4v-4h-4v-12h4v-4h-4v-4H279z M295,153h-12v-12h12V153z"/>
			<rect x="239" y="129" fill="#47BDEF" width="4" height="8"/>
			<rect x="243" y="125" fill="#47BDEF" width="4" height="4"/>
			<rect x="243" y="137" fill="#47BDEF" width="4" height="4"/>
			<rect x="251" y="141" fill="#47BDEF" width="4" height="4"/>
			<polygon fill="#47BDEF" points="235,141 235,137 231,137 231,141 231,145 243,145 243,141 			"/>
			<polygon fill="#47BDEF" points="227,145 227,141 223,141 223,133 219,133 219,145 			"/>
			<polygon fill="#47BDEF" points="223,121 219,121 219,129 223,129 223,125 227,125 227,117 223,117 			"/>
			<polygon fill="#47BDEF" points="235,133 235,121 239,121 239,125 243,125 243,121 247,121 247,117 243,117 239,117 239,113 
				235,113 235,117 231,117 231,129 227,129 227,137 231,137 231,133 			"/>
			<polygon fill="#47BDEF" points="275,93 279,93 279,85 267,85 267,89 275,89 			"/>
			<polygon fill="#47BDEF" points="279,101 279,97 271,97 271,101 267,101 267,105 263,105 263,113 267,113 267,109 271,109 
				271,105 275,105 275,101 			"/>
			<rect x="243" y="85" fill="#47BDEF" width="8" height="4"/>
			<path fill="#47BDEF" d="M225,105h8c3.3,0,6-2.7,6-6v-8c0-3.3-2.7-6-6-6h-8c-3.3,0-6,2.7-6,6v8C219,102.3,221.7,105,225,105z
				 M223,91c0-1.1,0.9-2,2-2h8c1.1,0,2,0.9,2,2v8c0,1.1-0.9,2-2,2h-8c-1.1,0-2-0.9-2-2V91z"/>
			<path fill="#47BDEF" d="M233,149h-8c-3.3,0-6,2.7-6,6v8c0,3.3,2.7,6,6,6h8c3.3,0,6-2.7,6-6v-8C239,151.7,236.3,149,233,149z
				 M235,163c0,1.1-0.9,2-2,2h-8c-1.1,0-2-0.9-2-2v-8c0-1.1,0.9-2,2-2h8c1.1,0,2,0.9,2,2V163z"/>
			<path fill="#47BDEF" d="M297,85h-8c-3.3,0-6,2.7-6,6v8c0,3.3,2.7,6,6,6h8c3.3,0,6-2.7,6-6v-8C303,87.7,300.3,85,297,85z M299,99
				c0,1.1-0.9,2-2,2h-8c-1.1,0-2-0.9-2-2v-8c0-1.1,0.9-2,2-2h8c1.1,0,2,0.9,2,2V99z"/>
		</g>
		<g>
			<path fill="#47BDEF" d="M295,98h-4c-0.6,0-1-0.4-1-1v-4c0-0.6,0.4-1,1-1h4c0.6,0,1,0.4,1,1v4C296,97.6,295.6,98,295,98z"/>
		</g>
	</g>
</g>
<g>
	<ellipse transform="matrix(0.7071 -0.7071 0.7071 0.7071 -8.3574 223.8234)" fill="#47BDEF" cx="266" cy="122" rx="2" ry="2"/>
	<ellipse transform="matrix(0.7071 -0.7071 0.7071 0.7071 -15.4285 226.7523)" fill="#47BDEF" cx="266" cy="132" rx="2" ry="2"/>
	<path fill="#47BDEF" d="M271,116h-16.6c-0.3,0-0.5,0.1-0.7,0.3l-3.4,3.4c-0.2,0.2-0.3,0.4-0.3,0.7V137c0,0.6,0.4,1,1,1h20
		c0.6,0,1-0.4,1-1v-20C272,116.4,271.6,116,271,116z M260,132c0,1-0.4,2-1.2,2.8c-0.8,0.8-1.8,1.2-2.8,1.2c-1.3,0-2.5-0.6-3.3-1.8
		c-0.9-1.3-0.9-3.1,0-4.4c0.8-1.2,2.1-1.8,3.3-1.8c1,0,2,0.4,2.7,1.1c0.1,0.1,0.1,0.2,0,0.2l-1,1c-0.1,0.1-0.1,0.1-0.2,0
		c-0.4-0.4-1-0.6-1.5-0.6c-0.7,0-1.4,0.4-1.9,1c-0.5,0.8-0.5,1.8,0,2.6c0.4,0.6,1.1,1,1.9,1c0.6,0,1.2-0.2,1.6-0.7
		c0.3-0.3,0.5-0.7,0.6-1h-2.4c-0.1,0-0.2-0.2-0.1-0.2l0.7-0.8c0.1-0.1,0.3-0.2,0.4-0.2h3c0.1,0,0.1,0.1,0.1,0.2L260,132z M260,124.2
		v1.8h-7v-7l1-1h1v6.2H260z M266,136c-2.2,0-4-1.8-4-4c0-2.2,1.8-4,4-4c2.2,0,4,1.8,4,4C270,134.2,268.2,136,266,136z M266,126
		c-2.2,0-4-1.8-4-4c0-2.2,1.8-4,4-4c2.2,0,4,1.8,4,4C270,124.2,268.2,126,266,126z"/>
</g>
</svg>
