<?xml version="1.0" encoding="utf-8"?>
<!-- Generator: Adobe Illustrator 21.1.0, SVG Export Plug-In . SVG Version: 6.00 Build 0)  -->
<svg version="1.1" id="Ebene_1" xmlns="http://www.w3.org/2000/svg" xmlns:xlink="http://www.w3.org/1999/xlink" x="0px" y="0px"
	 viewBox="0 0 522 228" enable-background="new 0 0 522 228" xml:space="preserve">
<g>
	<g opacity="0.5">
		<path fill="#797D80" d="M110,226H4c-1.7,0-3-1.3-3-3s1.3-3,3-3h7l1,1h90l1-1h7c1.7,0,3,1.3,3,3S111.7,226,110,226z"/>
	</g>
	<g opacity="0.5">
		<path fill="#797D80" d="M106,224H8c-1.1,0-2-0.9-2-2s0.9-2,2-2h3l1,1h90l1-1h3c1.1,0,2,0.9,2,2S107.1,224,106,224z"/>
	</g>
	<g opacity="0.5">
		<path fill="#797D80" d="M518,226H412c-1.7,0-3-1.3-3-3s1.3-3,3-3h7l1,1h90l1-1h7c1.7,0,3,1.3,3,3S519.7,226,518,226z"/>
	</g>
	<g opacity="0.5">
		<path fill="#797D80" d="M514,224h-98c-1.1,0-2-0.9-2-2s0.9-2,2-2h3l1,1h90l1-1h3c1.1,0,2,0.9,2,2S515.1,224,514,224z"/>
	</g>
	<g>
		<g>
			<g>
				<g>
					<path fill="#797D80" d="M465,195c5,0,9,4,9,9s-4,9-9,9s-9-4-9-9S460,195,465,195 M465,194c-5.5,0-10,4.5-10,10s4.5,10,10,10
						s10-4.5,10-10S470.5,194,465,194L465,194z"/>
				</g>
				<g opacity="0.25">
					<g>
						<path fill="#797D80" d="M456,204c0,0,0-0.1,0-0.3c0-0.2-0.1-0.5-0.1-0.9c0-0.2,0-0.4,0-0.7c0-0.2,0.1-0.5,0.1-0.8
							c0.1-0.6,0.3-1.2,0.5-1.8c0.3-0.6,0.7-1.3,1.2-2c0.5-0.7,1.1-1.3,1.9-1.8c0.7-0.5,1.6-1,2.5-1.3c0.9-0.3,1.9-0.4,2.9-0.5
							c0.6,0,0.9,0,1.4,0.1c0.5,0.1,1,0.2,1.4,0.3c0.9,0.3,1.8,0.7,2.5,1.3c0.7,0.5,1.4,1.1,1.9,1.8c0.5,0.6,0.9,1.3,1.2,2
							c0.3,0.7,0.4,1.3,0.5,1.8c0,0.3,0.1,0.5,0.1,0.8c0,0.2,0,0.5,0,0.7c0,0.4-0.1,0.7-0.1,0.9c0,0.2,0,0.3,0,0.3s0-0.1-0.1-0.3
							c-0.1-0.2-0.1-0.5-0.2-0.9c-0.1-0.4-0.3-0.8-0.5-1.3c-0.2-0.5-0.5-1-0.8-1.5c-0.4-0.5-0.8-1-1.3-1.5c-0.5-0.5-1.1-0.9-1.7-1.3
							c-0.6-0.4-1.4-0.6-2.1-0.9c-0.4-0.1-0.8-0.2-1.1-0.2c-0.3-0.1-0.9-0.1-1.2-0.1c-0.8,0-1.6,0.1-2.3,0.3
							c-0.7,0.2-1.5,0.5-2.1,0.9c-0.6,0.4-1.2,0.8-1.7,1.3c-0.5,0.5-0.9,1-1.3,1.5c-0.3,0.5-0.6,1-0.8,1.5c-0.2,0.5-0.4,0.9-0.5,1.3
							c-0.1,0.4-0.2,0.7-0.2,0.9C456,203.9,456,204,456,204z"/>
					</g>
				</g>
				<g>
					<path fill="#797D80" d="M512,186V32h-94v60.3c0.7,0.3,1.4,0.5,2,0.9V34h90v150h-90v-55.2c-0.6,0.3-1.3,0.6-2,0.9V186H512z"/>
					<path fill="#797D80" d="M504,1h-78c-8.8,0-16,7.2-16,16v74.1c0.3,0,0.7-0.1,1-0.1s0.7,0,1,0.1V17c0-7.7,6.3-14,14-14h78
						c7.7,0,14,6.3,14,14v190c0,7.7-6.3,14-14,14h-78c-7.7,0-14-6.3-14-14v-76.1c-0.3,0-0.7,0.1-1,0.1s-0.7,0-1-0.1V207
						c0,8.8,7.2,16,16,16h78c8.8,0,16-7.2,16-16V17C520,8.2,512.8,1,504,1z"/>
				</g>
				<g opacity="0.25">
					<g>
						<path fill="#797D80" d="M474.8,204.2c0,0,0,0.1,0,0.3c0,0.2,0.1,0.6,0.1,1c0,0.2,0,0.5,0,0.7c0,0.3-0.1,0.5-0.1,0.8
							c-0.1,0.6-0.3,1.3-0.6,2c-0.3,0.7-0.7,1.4-1.3,2.1c-0.5,0.7-1.2,1.4-2,1.9c-0.8,0.6-1.7,1-2.7,1.4c-1,0.3-2,0.5-3.1,0.5
							c-0.9,0-2.1-0.2-3-0.5c-1-0.3-1.9-0.8-2.7-1.4c-0.8-0.6-1.5-1.2-2-1.9c-0.6-0.7-1-1.4-1.3-2.1c-0.3-0.7-0.5-1.4-0.6-2
							c0-0.3-0.1-0.6-0.1-0.8c0-0.3,0-0.5,0-0.7c0-0.4,0.1-0.8,0.1-1c0-0.2,0-0.3,0-0.3s0,0.1,0.1,0.3c0.1,0.2,0.1,0.5,0.2,0.9
							c0.1,0.2,0.1,0.4,0.2,0.7c0.1,0.2,0.2,0.5,0.3,0.7c0.2,0.5,0.5,1.1,0.9,1.6c0.4,0.6,0.8,1.1,1.4,1.7c0.5,0.5,1.2,1,1.9,1.4
							c0.7,0.4,1.5,0.7,2.3,1c0.9,0.2,1.6,0.3,2.6,0.3c0.8,0,1.7-0.1,2.5-0.3c0.8-0.3,1.6-0.5,2.3-1c0.7-0.4,1.3-0.9,1.9-1.4
							c0.5-0.5,1-1.1,1.4-1.7c0.4-0.6,0.7-1.1,0.9-1.6c0.1-0.3,0.2-0.5,0.3-0.7c0.1-0.2,0.1-0.5,0.2-0.6c0.1-0.4,0.2-0.7,0.2-1
							C474.7,204.4,474.8,204.2,474.8,204.2z"/>
					</g>
				</g>
				<g>
					<circle fill="#797D80" cx="465" cy="13" r="1"/>
				</g>
				<g opacity="0.75">
					<g>
						<path fill="#797D80" d="M465,11c1.1,0,2,0.9,2,2s-0.9,2-2,2s-2-0.9-2-2S463.9,11,465,11"/>
					</g>
				</g>
				<g opacity="0.75">
					<g>
						<path fill="#797D80" d="M465,12c0.6,0,1,0.4,1,1s-0.4,1-1,1s-1-0.4-1-1S464.4,12,465,12"/>
					</g>
				</g>
				<g opacity="0.25">
					<g>
						<path fill="#797D80" d="M477,22.5L477,22.5c0,1.4-1.1,2.5-2.5,2.5h-19c-1.4,0-2.5-1.1-2.5-2.5v0c0-1.4,1.1-2.5,2.5-2.5h19
							C475.9,20,477,21.1,477,22.5z"/>
					</g>
				</g>
				<g>
					<path fill="#797D80" d="M474.5,21c0.8,0,1.5,0.7,1.5,1.5s-0.7,1.5-1.5,1.5h-19c-0.8,0-1.5-0.7-1.5-1.5s0.7-1.5,1.5-1.5H474.5
						 M474.5,20h-19c-1.4,0-2.5,1.1-2.5,2.5s1.1,2.5,2.5,2.5h19c1.4,0,2.5-1.1,2.5-2.5S475.9,20,474.5,20L474.5,20z"/>
				</g>
			</g>
		</g>
		<g>
			<g opacity="0.25">
				<g>
					<rect x="419" y="92" fill="#797D80" width="92" height="1"/>
				</g>
			</g>
			<g opacity="0.75">
				<g>
					<g>
						<rect x="450" y="42" fill="#47BDEF" width="24" height="8"/>
					</g>
				</g>
			</g>
			<g opacity="0.5">
				<g>
					<g>
						<rect x="450" y="55" fill="#47BDEF" width="32" height="4"/>
					</g>
				</g>
			</g>
			<g opacity="0.5">
				<g>
					<g>
						<rect x="426" y="172" fill="#47BDEF" width="52" height="4"/>
					</g>
				</g>
			</g>
			<g opacity="0.75">
				<g>
					<g>
						<rect x="426" y="179" fill="#797D80" width="78" height="3"/>
					</g>
				</g>
			</g>
			<g>
				<g>
					<path fill="#47BDEF" d="M450,67.5L450,67.5c0,0.8,0.7,1.5,1.5,1.5l0,0c0.8,0,1.5-0.7,1.5-1.5v0c0-0.8-0.7-1.5-1.5-1.5l0,0
						C450.7,66,450,66.7,450,67.5z"/>
				</g>
			</g>
			<g>
				<g>
					<path fill="#47BDEF" d="M454,67.5L454,67.5c0,0.8,0.7,1.5,1.5,1.5l0,0c0.8,0,1.5-0.7,1.5-1.5v0c0-0.8-0.7-1.5-1.5-1.5l0,0
						C454.7,66,454,66.7,454,67.5z"/>
				</g>
			</g>
			<g>
				<g>
					<path fill="#47BDEF" d="M458,67.5L458,67.5c0,0.8,0.7,1.5,1.5,1.5l0,0c0.8,0,1.5-0.7,1.5-1.5v0c0-0.8-0.7-1.5-1.5-1.5l0,0
						C458.7,66,458,66.7,458,67.5z"/>
				</g>
			</g>
			<g>
				<g>
					<path fill="#47BDEF" d="M462,67.5L462,67.5c0,0.8,0.7,1.5,1.5,1.5l0,0c0.8,0,1.5-0.7,1.5-1.5v0c0-0.8-0.7-1.5-1.5-1.5l0,0
						C462.7,66,462,66.7,462,67.5z"/>
				</g>
			</g>
			<g>
				<g>
					<path fill="#47BDEF" d="M466,67.5L466,67.5c0,0.8,0.7,1.5,1.5,1.5l0,0c0.8,0,1.5-0.7,1.5-1.5v0c0-0.8-0.7-1.5-1.5-1.5l0,0
						C466.7,66,466,66.7,466,67.5z"/>
				</g>
			</g>
			<g>
				<polygon fill="#47BDEF" points="499,59.6 497,61.6 497,57 495,57 495,61.6 493,59.6 491.6,61 496,65.4 500.4,61 				"/>
			</g>
			<g>
				<path fill="#47BDEF" d="M496,54c3.9,0,7,3.1,7,7s-3.1,7-7,7s-7-3.1-7-7S492.1,54,496,54 M496,53c-4.4,0-8,3.6-8,8s3.6,8,8,8
					s8-3.6,8-8S500.4,53,496,53L496,53z"/>
			</g>
			<g opacity="0.5">
				<path fill="#797D80" d="M503,77h-76c-0.6,0-1,0.4-1,1v8c0,0.6,0.4,1,1,1h76c0.6,0,1-0.4,1-1v-8C504,77.4,503.6,77,503,77z
					 M453,86v-8h24v8H453z M503,86h-25v-8h25V86z"/>
			</g>
			<g opacity="0.5">
				<g>
					<g>
						<g>
							<rect x="434" y="80" fill="#797D80" width="11" height="4"/>
						</g>
					</g>
				</g>
			</g>
			<g opacity="0.5">
				<g>
					<g>
						<g>
							<rect x="459" y="80" fill="#797D80" width="12" height="4"/>
						</g>
					</g>
				</g>
			</g>
			<g opacity="0.5">
				<g>
					<g>
						<g>
							<rect x="485" y="80" fill="#797D80" width="11" height="4"/>
						</g>
					</g>
				</g>
			</g>
			<g>
				<g>
					<path fill="#47BDEF" d="M440,41h-10c-2.2,0-4,1.8-4,4v10c0,2.2,1.8,4,4,4h10c2.2,0,4-1.8,4-4V45C444,42.8,442.2,41,440,41z
						 M442,55c0,1.1-0.9,2-2,2h-10c-1.1,0-2-0.9-2-2V45c0-1.1,0.9-2,2-2h10c1.1,0,2,0.9,2,2V55z"/>
				</g>
				<g>
					<path fill="#47BDEF" d="M435,46c-2.2,0-4,1.8-4,4s1.8,4,4,4c2.2,0,4-1.8,4-4S437.2,46,435,46z M435,53c-1.7,0-3-1.3-3-3
						s1.3-3,3-3c1.7,0,3,1.3,3,3S436.7,53,435,53z"/>
				</g>
			</g>
			<g>
				<path fill="#47BDEF" d="M461,98h-34c-0.2,0-0.4,0.1-0.6,0.2c0.2,0.3,0.4,0.5,0.6,0.8v0h34v63h-34v-39c-0.3,0.4-0.6,0.8-1,1.2
					V162c0,0.6,0.4,1,1,1h34c0.6,0,1-0.4,1-1V99C462,98.4,461.6,98,461,98z"/>
			</g>
			<g opacity="0.5">
				<path fill="#47BDEF" d="M426.2,98c3,3.5,4.8,8,4.8,13c0,5.1-1.9,9.7-5,13.2v3.8h36V98H426.2z"/>
			</g>
			<g opacity="0.5">
				<g>
					<rect x="468" y="98" fill="#47BDEF" width="36" height="6"/>
				</g>
			</g>
			<g>
				<g>
					<rect x="438" y="119" fill="#FFFFFF" width="12" height="2"/>
				</g>
			</g>
			<g>
				<g>
					<rect x="434" y="123" fill="#FFFFFF" width="7" height="1"/>
				</g>
			</g>
			<g>
				<g>
					<rect x="447" y="123" fill="#FFFFFF" width="10" height="1"/>
				</g>
			</g>
			<g>
				<g>
					<g>
						<circle fill="#FFFFFF" cx="444" cy="110" r="6"/>
					</g>
				</g>
			</g>
			<g opacity="0.5">
				<g>
					<g>
						<rect x="429" y="130" fill="#47BDEF" width="14" height="14"/>
					</g>
				</g>
			</g>
			<g opacity="0.5">
				<g>
					<g>
						<rect x="445" y="130" fill="#47BDEF" width="14" height="14"/>
					</g>
				</g>
			</g>
			<g opacity="0.5">
				<g>
					<g>
						<rect x="471" y="106" fill="#47BDEF" width="30" height="28"/>
					</g>
				</g>
			</g>
			<g opacity="0.5">
				<g>
					<g>
						<rect x="471" y="142" fill="#47BDEF" width="30" height="20"/>
					</g>
				</g>
			</g>
			<g opacity="0.75">
				<g>
					<g>
						<path fill="#47BDEF" d="M500,138L500,138c-0.6,0-1-0.4-1-1l0,0c0-0.6,0.4-1,1-1l0,0c0.6,0,1,0.4,1,1l0,0
							C501,137.6,500.6,138,500,138z"/>
					</g>
				</g>
			</g>
			<g opacity="0.75">
				<g>
					<g>
						<path fill="#47BDEF" d="M497,138L497,138c-0.6,0-1-0.4-1-1l0,0c0-0.6,0.4-1,1-1l0,0c0.6,0,1,0.4,1,1l0,0
							C498,137.6,497.6,138,497,138z"/>
					</g>
				</g>
			</g>
			<g opacity="0.75">
				<g>
					<g>
						<rect x="471" y="136" fill="#47BDEF" width="12" height="2"/>
					</g>
				</g>
			</g>
			<g opacity="0.5">
				<g>
					<g>
						<rect x="429" y="146" fill="#47BDEF" width="14" height="14"/>
					</g>
				</g>
			</g>
			<g opacity="0.5">
				<g>
					<g>
						<rect x="445" y="146" fill="#47BDEF" width="14" height="14"/>
					</g>
				</g>
			</g>
			<g>
				<g>
					<path fill="#47BDEF" d="M503,99v63h-34V99H503 M503,98h-34c-0.6,0-1,0.4-1,1v63c0,0.6,0.4,1,1,1h34c0.6,0,1-0.4,1-1V99
						C504,98.4,503.6,98,503,98L503,98z"/>
				</g>
			</g>
		</g>
	</g>
	<g>
		<path fill="#797D80" d="M313,160c0,1.7-1.3,3-3,3h-98c-1.7,0-3-1.3-3-3v-42.3c-0.6,0.2-1.3,0.3-2,0.3v42c0,2.8,2.2,5,5,5h98
			c2.8,0,5-2.2,5-5v-42c-0.7,0-1.4-0.1-2-0.3V160z"/>
		<path fill="#797D80" d="M209,62c0-1.7,1.3-3,3-3h98c1.7,0,3,1.3,3,3v42.3c0.6-0.2,1.3-0.3,2-0.3V62c0-2.8-2.2-5-5-5h-98
			c-2.8,0-5,2.2-5,5v42c0.7,0,1.4,0.1,2,0.3V62z"/>
	</g>
	<g>
		<path fill="#47BDEF" d="M111.7,117.8c-0.8,0-1.4-0.6-1.4-1.4V108l-1.5,1.5c-0.2,0.2-0.5,0.3-0.8,0.3c-0.6,0-1.2-0.5-1.2-1.2
			c0-0.3,0.1-0.6,0.4-0.8l3.1-3.1c0.3-0.3,0.7-0.5,1.2-0.5c0.9,0,1.7,0.7,1.7,1.6v10.5C113.2,117.1,112.5,117.8,111.7,117.8z"/>
	</g>
	<g>
		<path fill="#47BDEF" d="M414.9,117.8h-7.7c-0.7,0-1.3-0.6-1.3-1.4c0-0.5,0.2-0.9,0.6-1.2c5-3.7,6.6-5.1,6.6-6.7
			c0-1.2-1.1-1.7-2.2-1.7c-1.1,0-2,0.3-2.7,0.8c-0.3,0.2-0.5,0.3-0.8,0.3c-0.7,0-1.2-0.6-1.2-1.3c0-0.2,0.1-0.4,0.2-0.6
			c0.6-1,2.9-1.7,4.6-1.7c2.8,0,5.1,1.6,5.1,4.3c0,2.3-1.9,4.3-5.3,6.8h4.3c0.7,0,1.2,0.6,1.2,1.2
			C416.1,117.2,415.6,117.8,414.9,117.8z"/>
	</g>
	<g>
		<path fill="#47BDEF" d="M411,93c-9.6,0-17.4,7.5-17.9,17h-71.1c-0.5-3.9-3.9-7-7.9-7c-4.4,0-8,3.6-8,8s3.6,8,8,8
			c4.1,0,7.4-3.1,7.9-7h71.1c0.5,9.5,8.4,17,17.9,17c9.9,0,18-8.1,18-18S420.9,93,411,93z M314,117c-3.3,0-6-2.7-6-6s2.7-6,6-6
			s6,2.7,6,6S317.3,117,314,117z M411,127c-8.8,0-16-7.2-16-16s7.2-16,16-16s16,7.2,16,16S419.8,127,411,127z"/>
		<path fill="#47BDEF" d="M208,103c-4.1,0-7.4,3.1-7.9,7h-71.1c-0.5-9.5-8.4-17-17.9-17c-9.9,0-18,8.1-18,18s8.1,18,18,18
			c9.6,0,17.4-7.5,17.9-17h71.1c0.5,3.9,3.9,7,7.9,7c4.4,0,8-3.6,8-8S212.4,103,208,103z M111,127c-8.8,0-16-7.2-16-16s7.2-16,16-16
			s16,7.2,16,16S119.8,127,111,127z M208,117c-3.3,0-6-2.7-6-6s2.7-6,6-6s6,2.7,6,6S211.3,117,208,117z"/>
	</g>
	<g opacity="5.000000e-02">
		<g>
			<path fill="#797D80" d="M91,111c0-7.8,4.5-14.5,11-17.8V52H12v78h90v-1.2C95.5,125.5,91,118.8,91,111z"/>
		</g>
	</g>
	<g>
		<g>
			<g>
				<g opacity="0.5">
					<g>
						<g>
							<path fill="#797D80" d="M102.5,52h-91c-0.3,0-0.5-0.2-0.5-0.5s0.2-0.5,0.5-0.5h91c0.3,0,0.5,0.2,0.5,0.5S102.8,52,102.5,52z"
								/>
						</g>
					</g>
				</g>
				<g>
					<g>
						<g>
							<rect x="12" y="50" fill="#47BDEF" width="61" height="1"/>
						</g>
					</g>
				</g>
				<g>
					<g>
						<g>
							<path fill="#47BDEF" d="M100.5,72c-0.3,0-0.5-0.2-0.5-0.5v-18c0-0.3,0.2-0.5,0.5-0.5s0.5,0.2,0.5,0.5v18
								C101,71.8,100.8,72,100.5,72z"/>
						</g>
					</g>
				</g>
				<g opacity="0.5">
					<g>
						<g>
							<path fill="#797D80" d="M102.5,164H12c-0.3,0-0.5-0.2-0.5-0.5s0.2-0.5,0.5-0.5h90.5c0.3,0,0.5,0.2,0.5,0.5
								S102.8,164,102.5,164z"/>
						</g>
					</g>
				</g>
				<g>
					<g>
						<g>
							<path fill="#797D80" d="M57,195c5,0,9,4,9,9s-4,9-9,9s-9-4-9-9S52,195,57,195 M57,194c-5.5,0-10,4.5-10,10s4.5,10,10,10
								s10-4.5,10-10S62.5,194,57,194L57,194z"/>
						</g>
					</g>
				</g>
				<g>
					<g>
						<g>
							<circle fill="#797D80" cx="57" cy="13" r="1"/>
						</g>
					</g>
				</g>
				<g opacity="0.25">
					<g>
						<g>
							<g>
								<path fill="#797D80" d="M57,11c1.1,0,2,0.9,2,2c0,1.1-0.9,2-2,2s-2-0.9-2-2C55,11.9,55.9,11,57,11"/>
							</g>
						</g>
					</g>
				</g>
				<g opacity="0.75">
					<g>
						<g>
							<g>
								<path fill="#797D80" d="M57,12c0.6,0,1,0.4,1,1c0,0.6-0.4,1-1,1s-1-0.4-1-1C56,12.4,56.4,12,57,12 M57,11c-1.1,0-2,0.9-2,2
									c0,1.1,0.9,2,2,2s2-0.9,2-2C59,11.9,58.1,11,57,11L57,11z"/>
							</g>
						</g>
					</g>
				</g>
				<g opacity="0.25">
					<g>
						<g>
							<g>
								<path fill="#797D80" d="M69,22.5L69,22.5c0,1.4-1.1,2.5-2.5,2.5h-19c-1.4,0-2.5-1.1-2.5-2.5v0c0-1.4,1.1-2.5,2.5-2.5h19
									C67.9,20,69,21.1,69,22.5z"/>
							</g>
						</g>
					</g>
				</g>
				<g>
					<g>
						<g>
							<path fill="#797D80" d="M66.5,21c0.8,0,1.5,0.7,1.5,1.5c0,0.8-0.7,1.5-1.5,1.5h-19c-0.8,0-1.5-0.7-1.5-1.5
								c0-0.8,0.7-1.5,1.5-1.5H66.5 M66.5,20h-19c-1.4,0-2.5,1.1-2.5,2.5c0,1.4,1.1,2.5,2.5,2.5h19c1.4,0,2.5-1.1,2.5-2.5
								C69,21.1,67.9,20,66.5,20L66.5,20z"/>
						</g>
					</g>
				</g>
			</g>
			<g opacity="0.5">
				<g>
					<g>
						<g>
							<path fill="#797D80" d="M97.5,38.5v7h-80v-7H97.5 M99,37H16v10h83V37L99,37z"/>
						</g>
					</g>
				</g>
			</g>
			<g>
				<g>
					<g>
						<rect x="36" y="40" fill="#47BDEF" width="40" height="3"/>
					</g>
				</g>
			</g>
			<g opacity="0.75">
				<g>
					<g>
						<g>
							<path fill="#797D80" d="M92,42L92,42c0,1.1,0.9,2,2,2h0c1.1,0,2-0.9,2-2v0c0-1.1-0.9-2-2-2h0C92.9,40,92,40.9,92,42z"/>
						</g>
					</g>
				</g>
			</g>
		</g>
		<g opacity="0.75">
			<g>
				<g>
					<g>
						<polygon fill="#797D80" points="55,173 52,170 52,170 49,173 						"/>
					</g>
				</g>
			</g>
		</g>
		<g opacity="0.75">
			<g>
				<g>
					<g>
						<polygon fill="#797D80" points="32,177 37,174 37,174 32,171 						"/>
					</g>
				</g>
			</g>
		</g>
		<g opacity="0.75">
			<g>
				<g>
					<g>
						<polygon fill="#797D80" points="23,171 18,174 18,174 23,177 						"/>
					</g>
				</g>
			</g>
		</g>
		<g opacity="0.75">
			<g>
				<g>
					<g>
						<path fill="#797D80" d="M93,173v4h-4v-4H93 M94,172h-6v6h6V172L94,172z"/>
					</g>
				</g>
			</g>
		</g>
		<g opacity="0.75">
			<g>
				<g>
					<g>
						<polygon fill="#797D80" points="57,178 47,178 47,174 48,174 48,177 56,177 56,174 57,174 						"/>
					</g>
				</g>
			</g>
		</g>
		<g opacity="0.75">
			<g>
				<g>
					<g>
						<path fill="#797D80" d="M77,171v6h-9v-6H77 M78,170H67v8h11V170L78,170z"/>
					</g>
				</g>
			</g>
		</g>
		<g opacity="0.75">
			<g>
				<g>
					<g>
						<rect x="72" y="171" fill="#797D80" width="1" height="6"/>
					</g>
				</g>
			</g>
		</g>
		<g opacity="0.75">
			<g>
				<g>
					<g>
						<polygon fill="#797D80" points="96,170 90,170 90,171 95,171 95,176 96,176 						"/>
					</g>
				</g>
			</g>
		</g>
		<g>
			<g opacity="0.75">
				<g>
					<g>
						<g>
							<rect x="18" y="58" fill="#47BDEF" width="11" height="2"/>
						</g>
					</g>
				</g>
			</g>
			<g opacity="0.75">
				<g>
					<g>
						<g>
							<rect x="18" y="62" fill="#47BDEF" width="11" height="2"/>
						</g>
					</g>
				</g>
			</g>
			<g opacity="0.75">
				<g>
					<g>
						<g>
							<rect x="18" y="66" fill="#47BDEF" width="11" height="2"/>
						</g>
					</g>
				</g>
			</g>
			<g opacity="0.5">
				<g>
					<g>
						<g>
							<rect x="29" y="140" fill="#47BDEF" width="56" height="6"/>
						</g>
					</g>
				</g>
			</g>
			<g opacity="0.5">
				<g>
					<g>
						<g>
							<rect x="29.2" y="110" fill="#47BDEF" width="56" height="6"/>
						</g>
					</g>
				</g>
			</g>
			<g opacity="0.75">
				<g>
					<g>
						<g>
							<rect x="19" y="150" fill="#47BDEF" width="76" height="3"/>
						</g>
					</g>
				</g>
			</g>
			<g opacity="0.75">
				<g>
					<g>
						<g>
							<rect x="19" y="156" fill="#47BDEF" width="76" height="3"/>
						</g>
					</g>
				</g>
			</g>
		</g>
	</g>
	<g>
		<g>
			<g>
				<g>
					<g>
						<path fill="#FFFFFF" d="M63,102H51c-3.3,0-6-2.7-6-6V84c0-3.3,2.7-6,6-6h12c3.3,0,6,2.7,6,6v12C69,99.3,66.3,102,63,102z"/>
					</g>
				</g>
			</g>
			<g>
				<g>
					<g>
						<path fill="#47BDEF" d="M63,104H51c-4.4,0-8-3.6-8-8V84c0-4.4,3.6-8,8-8h12c4.4,0,8,3.6,8,8v12C71,100.4,67.4,104,63,104z
							 M51,80c-2.2,0-4,1.8-4,4v12c0,2.2,1.8,4,4,4h12c2.2,0,4-1.8,4-4V84c0-2.2-1.8-4-4-4H51z"/>
					</g>
				</g>
			</g>
		</g>
		<g>
			<g>
				<g>
					<path fill="#47BDEF" d="M54,89h-4v-2c0-1.1,0.9-2,2-2h0c1.1,0,2,0.9,2,2V89z"/>
				</g>
			</g>
		</g>
		<g>
			<g>
				<g>
					<path fill="#47BDEF" d="M53,92h8v1c0,2.2-1.8,4-4,4h0c-2.2,0-4-1.8-4-4V92z"/>
				</g>
			</g>
		</g>
		<g>
			<g>
				<g>
					<path fill="#47BDEF" d="M64,89h-4v-2c0-1.1,0.9-2,2-2h0c1.1,0,2,0.9,2,2V89z"/>
				</g>
			</g>
		</g>
	</g>
	<g>
		<g>
			<g>
				<path fill="#797D80" d="M102,184H12V34h90v59.2c0.6-0.3,1.3-0.6,2-0.9V32H10v154h94v-56.3c-0.7-0.3-1.4-0.5-2-0.9V184z"/>
			</g>
		</g>
		<g>
			<g>
				<path fill="#797D80" d="M110,130.9V207c0,7.7-6.3,14-14,14H18c-7.7,0-14-6.3-14-14V17C4,9.3,10.3,3,18,3h78c7.7,0,14,6.3,14,14
					v74.1c0.3,0,0.7-0.1,1-0.1s0.7,0,1,0.1V17c0-8.8-7.2-16-16-16H18C9.2,1,2,8.2,2,17v190c0,8.8,7.2,16,16,16h78
					c8.8,0,16-7.2,16-16v-76.1c-0.3,0-0.7,0.1-1,0.1S110.3,131,110,130.9z"/>
			</g>
		</g>
	</g>
</g>
<g>
	<g>
		<g>
			<path fill="#47BDEF" d="M231,82h-4c-0.6,0-1-0.4-1-1v-4c0-0.6,0.4-1,1-1h4c0.6,0,1,0.4,1,1v4C232,81.6,231.6,82,231,82z"/>
		</g>
		<g>
			<path fill="#47BDEF" d="M231,146h-4c-0.6,0-1-0.4-1-1v-4c0-0.6,0.4-1,1-1h4c0.6,0,1,0.4,1,1v4C232,145.6,231.6,146,231,146z"/>
		</g>
		<g>
			<polygon fill="#47BDEF" points="263,77 263,73 263,69 255,69 255,73 259,73 259,85 263,85 263,81 271,81 271,77 			"/>
			<polygon fill="#47BDEF" points="283,109 291,109 291,105 283,105 279,105 275,105 275,109 279,109 279,117 283,117 			"/>
			<polygon fill="#47BDEF" points="291,113 287,113 287,117 295,117 295,113 299,113 299,121 303,121 303,109 291,109 			"/>
			<polygon fill="#47BDEF" points="295,93 283,93 283,97 279,97 279,101 287,101 287,97 291,97 291,101 295,101 295,105 303,105 
				303,101 299,101 299,97 295,97 			"/>
			<rect x="275" y="89" fill="#47BDEF" width="4" height="8"/>
			<polygon fill="#47BDEF" points="251,93 255,93 255,97 259,97 259,89 251,89 251,81 255,81 255,77 243,77 243,81 247,81 247,85 
				243,85 243,89 247,89 247,93 239,93 239,97 251,97 			"/>
			<rect x="219" y="93" fill="#47BDEF" width="8" height="4"/>
			<rect x="227" y="97" fill="#47BDEF" width="4" height="4"/>
			<rect x="299" y="149" fill="#47BDEF" width="4" height="4"/>
			<rect x="251" y="149" fill="#47BDEF" width="12" height="4"/>
			<rect x="243" y="149" fill="#47BDEF" width="4" height="4"/>
			<rect x="243" y="129" fill="#47BDEF" width="4" height="8"/>
			<polygon fill="#47BDEF" points="247,141 243,141 243,145 247,145 247,149 251,149 251,137 247,137 			"/>
			<rect x="299" y="93" fill="#47BDEF" width="4" height="4"/>
			<rect x="287" y="129" fill="#47BDEF" width="4" height="4"/>
			<path fill="#47BDEF" d="M279,121v-4h-4v8h4v4h-4v4h-4v4h-4v4h-8v-4h4v-4h4v-4h4v-4h-8v4h-4v4h-8v4h4v8h12v4h4v4h12v-4h4v-4h-8v4
				h-4v-4h-4v-4h4v-4h4v4h16v4h-4v4h8v-4h4v-4h-4v-12h4v-4h-4v-4H279z M295,137h-12v-12h12V137z"/>
			<rect x="239" y="113" fill="#47BDEF" width="4" height="8"/>
			<rect x="243" y="109" fill="#47BDEF" width="4" height="4"/>
			<rect x="243" y="121" fill="#47BDEF" width="4" height="4"/>
			<rect x="251" y="125" fill="#47BDEF" width="4" height="4"/>
			<polygon fill="#47BDEF" points="235,125 235,121 231,121 231,125 231,129 243,129 243,125 			"/>
			<polygon fill="#47BDEF" points="227,129 227,125 223,125 223,117 219,117 219,129 			"/>
			<polygon fill="#47BDEF" points="223,105 219,105 219,113 223,113 223,109 227,109 227,101 223,101 			"/>
			<polygon fill="#47BDEF" points="235,117 235,105 239,105 239,109 243,109 243,105 247,105 247,101 243,101 239,101 239,97 
				235,97 235,101 231,101 231,113 227,113 227,121 231,121 231,117 			"/>
			<polygon fill="#47BDEF" points="275,77 279,77 279,69 267,69 267,73 275,73 			"/>
			<polygon fill="#47BDEF" points="279,85 279,81 271,81 271,85 267,85 267,89 263,89 263,97 267,97 267,93 271,93 271,89 275,89 
				275,85 			"/>
			<rect x="243" y="69" fill="#47BDEF" width="8" height="4"/>
			<path fill="#47BDEF" d="M225,89h8c3.3,0,6-2.7,6-6v-8c0-3.3-2.7-6-6-6h-8c-3.3,0-6,2.7-6,6v8C219,86.3,221.7,89,225,89z M223,75
				c0-1.1,0.9-2,2-2h8c1.1,0,2,0.9,2,2v8c0,1.1-0.9,2-2,2h-8c-1.1,0-2-0.9-2-2V75z"/>
			<path fill="#47BDEF" d="M233,133h-8c-3.3,0-6,2.7-6,6v8c0,3.3,2.7,6,6,6h8c3.3,0,6-2.7,6-6v-8C239,135.7,236.3,133,233,133z
				 M235,147c0,1.1-0.9,2-2,2h-8c-1.1,0-2-0.9-2-2v-8c0-1.1,0.9-2,2-2h8c1.1,0,2,0.9,2,2V147z"/>
			<path fill="#47BDEF" d="M297,69h-8c-3.3,0-6,2.7-6,6v8c0,3.3,2.7,6,6,6h8c3.3,0,6-2.7,6-6v-8C303,71.7,300.3,69,297,69z M299,83
				c0,1.1-0.9,2-2,2h-8c-1.1,0-2-0.9-2-2v-8c0-1.1,0.9-2,2-2h8c1.1,0,2,0.9,2,2V83z"/>
		</g>
		<g>
			<path fill="#47BDEF" d="M295,82h-4c-0.6,0-1-0.4-1-1v-4c0-0.6,0.4-1,1-1h4c0.6,0,1,0.4,1,1v4C296,81.6,295.6,82,295,82z"/>
		</g>
	</g>
</g>
<g>
	<ellipse transform="matrix(0.7071 -0.7071 0.7071 0.7071 2.9563 219.1371)" fill="#47BDEF" cx="266" cy="106" rx="2" ry="2"/>
	<ellipse transform="matrix(0.7071 -0.7071 0.7071 0.7071 -4.1148 222.066)" fill="#47BDEF" cx="266" cy="116" rx="2" ry="2"/>
	<path fill="#47BDEF" d="M271,100h-16.6c-0.3,0-0.5,0.1-0.7,0.3l-3.4,3.4c-0.2,0.2-0.3,0.4-0.3,0.7V121c0,0.6,0.4,1,1,1h20
		c0.6,0,1-0.4,1-1v-20C272,100.4,271.6,100,271,100z M260,116c0,1-0.4,2-1.2,2.8c-0.8,0.8-1.8,1.2-2.8,1.2c-1.3,0-2.5-0.6-3.3-1.8
		c-0.9-1.3-0.9-3.1,0-4.4c0.8-1.2,2.1-1.8,3.3-1.8c1,0,2,0.4,2.7,1.1c0.1,0.1,0.1,0.2,0,0.2l-1,1c-0.1,0.1-0.1,0.1-0.2,0
		c-0.4-0.4-1-0.6-1.5-0.6c-0.7,0-1.4,0.4-1.9,1c-0.5,0.8-0.5,1.8,0,2.6c0.4,0.6,1.1,1,1.9,1c0.6,0,1.2-0.2,1.6-0.7
		c0.3-0.3,0.5-0.7,0.6-1h-2.4c-0.1,0-0.2-0.2-0.1-0.2l0.7-0.8c0.1-0.1,0.3-0.2,0.4-0.2h3c0.1,0,0.1,0.1,0.1,0.2L260,116z M260,108.2
		v1.8h-7v-7l1-1h1v6.2H260z M266,120c-2.2,0-4-1.8-4-4c0-2.2,1.8-4,4-4c2.2,0,4,1.8,4,4C270,118.2,268.2,120,266,120z M266,110
		c-2.2,0-4-1.8-4-4c0-2.2,1.8-4,4-4c2.2,0,4,1.8,4,4C270,108.2,268.2,110,266,110z"/>
</g>
</svg>
