<?xml version="1.0" encoding="utf-8"?>
<!-- Generator: Adobe Illustrator 21.1.0, SVG Export Plug-In . SVG Version: 6.00 Build 0)  -->
<svg version="1.1" id="Ebene_1" xmlns="http://www.w3.org/2000/svg" xmlns:xlink="http://www.w3.org/1999/xlink" x="0px" y="0px"
	 viewBox="0 0 522 264" enable-background="new 0 0 522 264" xml:space="preserve">
<g>
	<g>
		<g opacity="0.5">
			<g>
				
					<rect x="101" y="143.8" transform="matrix(0.1961 -0.9806 0.9806 0.1961 -69.0133 223.8173)" fill="#797D80" width="2" height="20.4"/>
			</g>
		</g>
		<g opacity="0.5">
			<g>
				<rect x="172" y="155" fill="#797D80" width="20" height="2"/>
			</g>
		</g>
		<g opacity="0.5">
			<g>
				
					<rect x="161" y="138.3" transform="matrix(0.5145 -0.8575 0.8575 0.5145 -49.9722 211.7395)" fill="#797D80" width="2" height="23.3"/>
			</g>
		</g>
		<g opacity="0.5">
			<g>
				
					<rect x="132" y="144" transform="matrix(0.995 -9.960040e-02 9.960040e-02 0.995 -13.736 14.8643)" fill="#797D80" width="20.1" height="2"/>
			</g>
		</g>
		<g opacity="0.5">
			<g>
				
					<rect x="110.8" y="150" transform="matrix(0.8944 -0.4472 0.4472 0.8944 -54.6494 70.5016)" fill="#797D80" width="22.4" height="2"/>
			</g>
		</g>
		<g>
			<circle fill="#797D80" cx="112" cy="156" r="3"/>
		</g>
		<g>
			<circle fill="#797D80" cx="92" cy="152" r="3"/>
		</g>
		<g>
			<circle fill="#797D80" cx="132" cy="146" r="3"/>
		</g>
		<g>
			<circle fill="#797D80" cx="152" cy="144" r="3"/>
		</g>
		<g>
			<circle fill="#797D80" cx="172" cy="156" r="3"/>
		</g>
		<g>
			<circle fill="#797D80" cx="192" cy="156" r="3"/>
		</g>
		<g opacity="0.5">
			<g>
				
					<rect x="409.2" y="79" transform="matrix(0.7809 -0.6247 0.6247 0.7809 42.4978 281.1518)" fill="#797D80" width="25.6" height="2"/>
			</g>
		</g>
		<g opacity="0.5">
			<g>
				<rect x="352" y="93" fill="#797D80" width="20" height="2"/>
			</g>
		</g>
		<g opacity="0.5">
			<g>
				<rect x="372" y="93" fill="#797D80" width="20" height="2"/>
			</g>
		</g>
		<g opacity="0.5">
			<g>
				
					<rect x="391.6" y="90" transform="matrix(0.9579 -0.2871 0.2871 0.9579 -9.2028 119.2363)" fill="#797D80" width="20.9" height="2"/>
			</g>
		</g>
		<g>
			<circle fill="#797D80" cx="412" cy="88" r="3"/>
		</g>
		<g>
			<circle fill="#797D80" cx="432" cy="72" r="3"/>
		</g>
		<g>
			<circle fill="#797D80" cx="392" cy="94" r="3"/>
		</g>
		<g>
			<circle fill="#797D80" cx="372" cy="94" r="3"/>
		</g>
		<g opacity="0.5">
			<g>
				
					<rect x="290.6" y="114.5" transform="matrix(0.8764 -0.4817 0.4817 0.8764 -18.2921 159.7406)" fill="#797D80" width="22.8" height="2"/>
			</g>
		</g>
		<g opacity="0.5">
			<g>
				
					<rect x="271.9" y="121.5" transform="matrix(0.9889 -0.1484 0.1484 0.9889 -15.0556 43.2016)" fill="#797D80" width="20.2" height="2"/>
			</g>
		</g>
		<g opacity="0.5">
			<g>
				
					<rect x="330.3" y="99" transform="matrix(0.8574 -0.5146 0.5146 0.8574 -2.697 190.266)" fill="#797D80" width="23.3" height="2"/>
			</g>
		</g>
		<g>
			<circle fill="#797D80" cx="352" cy="94" r="3"/>
		</g>
		<g opacity="0.5">
			<g>
				
					<rect x="311.8" y="107" transform="matrix(0.9805 -0.1963 0.1963 0.9805 -14.9357 65.3112)" fill="#797D80" width="20.4" height="2"/>
			</g>
		</g>
		<g>
			<circle fill="#797D80" cx="292" cy="121" r="3"/>
		</g>
		<g>
			<circle fill="#797D80" cx="312" cy="110" r="3"/>
		</g>
		<g>
			<circle fill="#797D80" cx="332" cy="106" r="3"/>
		</g>
		<g>
			<circle fill="#797D80" cx="272" cy="124" r="3"/>
		</g>
		<g opacity="0.5">
			<path fill="#797D80" d="M192,155l0.1,2l12.5-0.6c0.5-0.7,1-1.4,1.5-2.1L192,155z"/>
			<path fill="#797D80" d="M272.4,124.9l-0.7-1.9l-9.9,3.9c1.6,0,3.2,0.1,4.9,0.2L272.4,124.9z"/>
		</g>
	</g>
	<g>
		<path fill="#47BDEF" d="M192,88.4l-4.4-4.4H176c-1.7,0-3-1.3-3-3V64c0-1.7,1.3-3,3-3h32c1.7,0,3,1.3,3,3v17c0,1.7-1.3,3-3,3h-11.6
			L192,88.4z M176,63c-0.6,0-1,0.4-1,1v17c0,0.6,0.4,1,1,1h12.4l3.6,3.6l3.6-3.6H208c0.6,0,1-0.4,1-1V64c0-0.6-0.4-1-1-1H176z"/>
	</g>
	<g>
		<rect x="179" y="67" fill="#47BDEF" width="26" height="2"/>
	</g>
	<g>
		<rect x="179" y="72" fill="#47BDEF" width="12" height="2"/>
	</g>
	<g>
		<rect x="193" y="72" fill="#47BDEF" width="6" height="2"/>
	</g>
	<g>
		<rect x="193" y="77" fill="#47BDEF" width="4" height="2"/>
	</g>
	<g>
		<rect x="179" y="77" fill="#47BDEF" width="12" height="2"/>
	</g>
	<g opacity="0.25">
		<g>
			<polygon fill="#797D80" points="481,195 473,196 473,6 475,6 			"/>
		</g>
	</g>
	<g opacity="0.25">
		<g>
			<polygon fill="#797D80" points="41,195 49,196 49,6 47,6 			"/>
		</g>
	</g>
	<g>
		<g>
			<g>
				<circle fill="#797D80" cx="55" cy="8" r="2"/>
			</g>
			<g opacity="0.75">
				<circle fill="#797D80" cx="71" cy="8" r="2"/>
			</g>
			<g opacity="0.5">
				<circle fill="#797D80" cx="63" cy="8" r="2"/>
			</g>
		</g>
	</g>
	<g>
		<rect x="1" y="195" fill="#797D80" width="115" height="2"/>
	</g>
	<path fill="#797D80" d="M470,1H52c-2.8,0-5,2.2-5,5v190h2V14h424v182h2V6C475,3.2,472.8,1,470,1z M49,13V6c0-1.7,1.3-3,3-3h418
		c1.7,0,3,1.3,3,3v7H49z"/>
	<g>
		<g opacity="0.5">
			<g>
				
					<rect x="101" y="133.8" transform="matrix(0.1961 -0.9806 0.9806 0.1961 -59.2075 215.7785)" fill="#47BDEF" width="2" height="20.4"/>
			</g>
		</g>
		<g opacity="0.5">
			<g>
				
					<rect x="188.5" y="146" transform="matrix(0.7432 -0.669 0.669 0.7432 -46.4814 172.8847)" fill="#47BDEF" width="26.9" height="2"/>
			</g>
		</g>
		<g opacity="0.5">
			<g>
				
					<rect x="181" y="139.8" transform="matrix(0.4472 -0.8944 0.8944 0.4472 -34.4514 246.2565)" fill="#47BDEF" width="2" height="22.4"/>
			</g>
		</g>
		<g opacity="0.5">
			<g>
				
					<rect x="161" y="125.2" transform="matrix(0.6247 -0.7809 0.7809 0.6247 -46.9605 178.2928)" fill="#47BDEF" width="2" height="25.6"/>
			</g>
		</g>
		<g opacity="0.5">
			<g>
				
					<rect x="131.6" y="132" transform="matrix(0.9579 -0.2871 0.2871 0.9579 -32.2043 46.3636)" fill="#47BDEF" width="20.9" height="2"/>
			</g>
		</g>
		<g opacity="0.5">
			<g>
				
					<rect x="110.8" y="140" transform="matrix(0.8944 -0.4472 0.4472 0.8944 -50.1772 69.4458)" fill="#47BDEF" width="22.4" height="2"/>
			</g>
		</g>
		<g>
			<circle fill="#47BDEF" cx="112" cy="146" r="3"/>
		</g>
		<g>
			<circle fill="#47BDEF" cx="92" cy="142" r="3"/>
		</g>
		<g>
			<circle fill="#47BDEF" cx="132" cy="136" r="3"/>
		</g>
		<g>
			<circle fill="#47BDEF" cx="152" cy="130" r="3"/>
		</g>
		<g>
			<circle fill="#47BDEF" cx="172" cy="146" r="3"/>
		</g>
		<g>
			<circle fill="#47BDEF" cx="192" cy="156" r="3"/>
		</g>
		<g opacity="0.5">
			<g>
				
					<rect x="351.8" y="81" transform="matrix(0.9805 -0.1963 0.1963 0.9805 -9.0535 72.6575)" fill="#47BDEF" width="20.4" height="2"/>
			</g>
		</g>
		<g opacity="0.5">
			<g>
				
					<rect x="381" y="71.8" transform="matrix(0.1961 -0.9806 0.9806 0.1961 226.676 440.5003)" fill="#47BDEF" width="2" height="20.4"/>
			</g>
		</g>
		<g opacity="0.5">
			<g>
				
					<rect x="390.8" y="78" transform="matrix(0.8944 -0.4472 0.4472 0.8944 7.1104 188.1201)" fill="#47BDEF" width="22.4" height="2"/>
			</g>
		</g>
		<g opacity="0.5">
			<g>
				
					<rect x="409.2" y="65" transform="matrix(0.7809 -0.6247 0.6247 0.7809 51.2435 278.084)" fill="#47BDEF" width="25.6" height="2"/>
			</g>
		</g>
		<g>
			<circle fill="#47BDEF" cx="432" cy="58" r="3"/>
		</g>
		<g>
			<circle fill="#47BDEF" cx="412" cy="74" r="3"/>
		</g>
		<g>
			<circle fill="#47BDEF" cx="392" cy="84" r="3"/>
		</g>
		<g>
			<circle fill="#47BDEF" cx="372" cy="80" r="3"/>
		</g>
		<g opacity="0.5">
			<g>
				
					<rect x="290.1" y="103.5" transform="matrix(0.8386 -0.5447 0.5447 0.8386 -8.1833 181.3803)" fill="#47BDEF" width="23.9" height="2"/>
			</g>
		</g>
		<g opacity="0.5">
			<g>
				
					<rect x="210.3" y="131" transform="matrix(0.8574 -0.5146 0.5146 0.8574 -36.2767 133.0723)" fill="#47BDEF" width="23.3" height="2"/>
			</g>
		</g>
		<g opacity="0.5">
			<g>
				
					<rect x="231.6" y="122" transform="matrix(0.9579 -0.2871 0.2871 0.9579 -25.1242 74.6506)" fill="#47BDEF" width="20.9" height="2"/>
			</g>
		</g>
		<g opacity="0.5">
			<g>
				
					<rect x="251.2" y="115" transform="matrix(0.9286 -0.3711 0.3711 0.9286 -24.3384 105.4972)" fill="#47BDEF" width="21.5" height="2"/>
			</g>
		</g>
		<g opacity="0.5">
			<g>
				
					<rect x="272" y="110.5" transform="matrix(0.9988 -4.979154e-02 4.979154e-02 0.9988 -5.202 14.1795)" fill="#47BDEF" width="20" height="2"/>
			</g>
		</g>
		<g opacity="0.5">
			<g>
				
					<rect x="330.3" y="89" transform="matrix(0.8574 -0.5146 0.5146 0.8574 2.4494 188.8401)" fill="#47BDEF" width="23.3" height="2"/>
			</g>
		</g>
		<g>
			<circle fill="#47BDEF" cx="352" cy="84" r="3"/>
		</g>
		<g opacity="0.5">
			<g>
				
					<rect x="312" y="96" transform="matrix(0.995 -9.960040e-02 9.960040e-02 0.995 -8.0601 32.5537)" fill="#47BDEF" width="20.1" height="2"/>
			</g>
		</g>
		<g>
			<circle fill="#47BDEF" cx="292" cy="111" r="3"/>
		</g>
		<g>
			<circle fill="#47BDEF" cx="312" cy="98" r="3"/>
		</g>
		<g>
			<circle fill="#47BDEF" cx="332" cy="96" r="3"/>
		</g>
		<g>
			<circle fill="#47BDEF" cx="272" cy="112" r="3"/>
		</g>
		<g>
			<circle fill="#47BDEF" cx="252" cy="120" r="3"/>
		</g>
		<g>
			<circle fill="#47BDEF" cx="232" cy="126" r="3"/>
		</g>
		<g>
			<circle fill="#47BDEF" cx="212" cy="138" r="3"/>
		</g>
	</g>
	<g opacity="0.5">
		<g>
			<rect x="433" y="35" fill="#47BDEF" width="30" height="4"/>
		</g>
	</g>
	<g opacity="0.5">
		<g>
			<rect x="433" y="42" fill="#797D80" width="30" height="4"/>
		</g>
	</g>
	<g>
		<rect x="425" y="35" fill="#47BDEF" width="4" height="4"/>
	</g>
	<g>
		<rect x="425" y="42" fill="#797D80" width="4" height="4"/>
	</g>
	<g opacity="0.5">
		<g>
			<rect x="59" y="156" fill="#797D80" width="10" height="4"/>
		</g>
	</g>
	<g opacity="0.5">
		<g>
			<rect x="65" y="167" fill="#797D80" width="4" height="4"/>
		</g>
	</g>
	<g opacity="0.5">
		<g>
			<rect x="59" y="145" fill="#797D80" width="10" height="4"/>
		</g>
	</g>
	<g opacity="0.5">
		<g>
			<rect x="59" y="134" fill="#797D80" width="10" height="4"/>
		</g>
	</g>
	<g opacity="0.5">
		<g>
			<rect x="59" y="123" fill="#797D80" width="10" height="4"/>
		</g>
	</g>
	<g opacity="0.5">
		<g>
			<rect x="59" y="112" fill="#797D80" width="10" height="4"/>
		</g>
	</g>
	<g opacity="0.5">
		<g>
			<rect x="59" y="101" fill="#797D80" width="10" height="4"/>
		</g>
	</g>
	<g opacity="0.5">
		<g>
			<rect x="59" y="90" fill="#797D80" width="10" height="4"/>
		</g>
	</g>
	<g opacity="0.5">
		<g>
			<rect x="59" y="79" fill="#797D80" width="10" height="4"/>
		</g>
	</g>
	<g opacity="0.5">
		<g>
			<rect x="59" y="68" fill="#797D80" width="10" height="4"/>
		</g>
	</g>
	<g opacity="0.5">
		<g>
			<rect x="59" y="57" fill="#797D80" width="10" height="4"/>
		</g>
	</g>
	<path opacity="0.5" fill="#47BDEF" d="M207,61h-30c-2.2,0-4,1.8-4,4v15c0,2.2,1.8,4,4,4l10.2-1l3.4,3.4l0.4,0.4V153h2V86.8l0.4-0.4
		l3.4-3.4l10.2,1c2.2,0,4-0.8,4-3V65C211,62.8,209.2,61,207,61z M210,81c0,1.1-0.9,2-2,2h-12l-4,4l-4-4h-12c-1.1,0-2-0.9-2-2V64
		c0-1.1,0.9-2,2-2h32c1.1,0,2,0.9,2,2V81z"/>
	<g>
		<polygon fill="#47BDEF" points="68,46 66,46 66,47 69,47 69,44 68,44 		"/>
		<polygon fill="#47BDEF" points="60,44 59,44 59,47 62,47 62,46 60,46 		"/>
		<polygon fill="#47BDEF" points="66,37 66,38 68,38 68,40 69,40 69,37 		"/>
		<polygon fill="#47BDEF" points="59,37 59,40 60,40 60,38 62,38 62,37 		"/>
	</g>
	<rect x="406" y="195" fill="#797D80" width="115" height="2"/>
	<g>
		<g>
			<path fill="#797D80" d="M427,168H324c0.3,0.7,0.6,1.3,0.8,2H427V168z"/>
			<path fill="#797D80" d="M80,168V58h-2h-3v2h3v9h-3v2h3v9h-3v2h3v9h-3v2h3v9h-3v2h3v9h-3v2h3v9h-3v2h3v9h-3v2h3v9h-3v2h3v9h-3v2h3
				v9h-3v2h3h119.1c0.3-0.7,0.5-1.3,0.8-2H80z"/>
		</g>
		<path fill="#47BDEF" d="M386,178c-9.6,0-17.4,7.5-17.9,17H328c-0.4-22.8-12.3-44.8-33.5-57c-10.2-5.9-21.7-9-33.4-9
			c-23.9,0-46.1,12.8-58.1,33.5c-5.9,10.2-8.8,21.4-8.9,32.5h-40.1c-0.5-9.5-8.4-17-17.9-17c-9.9,0-18,8.1-18,18s8.1,18,18,18
			c9.6,0,17.4-7.5,17.9-17H194c0.4,22.8,12.3,44.8,33.5,57c10.2,5.9,21.7,9,33.4,9c23.9,0,46.1-12.8,58.1-33.5
			c5.9-10.2,8.8-21.4,8.9-32.5h40.1c0.5,9.5,8.4,17,17.9,17c9.9,0,18-8.1,18-18S395.9,178,386,178z M136,212c-8.8,0-16-7.2-16-16
			s7.2-16,16-16s16,7.2,16,16S144.8,212,136,212z M317.3,228.5c-11.6,20.1-33.2,32.5-56.3,32.5c-11.3,0-22.6-3-32.4-8.7
			c-31-17.9-41.7-57.7-23.8-88.8c11.6-20.1,33.2-32.5,56.3-32.5c11.3,0,22.6,3,32.4,8.7C324.5,157.6,335.2,197.5,317.3,228.5z
			 M386,212c-8.8,0-16-7.2-16-16s7.2-16,16-16s16,7.2,16,16S394.8,212,386,212z"/>
		<path fill="#47BDEF" d="M261,159c-20.4,0-37,16.6-37,37s16.6,37,37,37s37-16.6,37-37S281.4,159,261,159z M285.1,221.3l-1.5-1.6
			c-0.4-0.4-1-0.4-1.4-0.1c-0.4,0.4-0.4,1-0.1,1.4l1.5,1.6c-0.4,0.4-0.9,0.7-1.3,1l-1.3-1.8c-0.3-0.4-0.9-0.5-1.4-0.2
			c-0.4,0.3-0.5,1-0.2,1.4l1.3,1.8c-0.5,0.3-0.9,0.6-1.4,0.9l-1.1-1.9c-0.3-0.5-0.9-0.6-1.4-0.4c-0.5,0.3-0.6,0.9-0.4,1.4l1.1,1.9
			c-0.5,0.3-1,0.5-1.5,0.8l-0.9-2c-0.2-0.5-0.8-0.7-1.3-0.5c-0.5,0.2-0.7,0.8-0.5,1.3l0.9,2c-0.5,0.2-1,0.4-1.6,0.6l-0.7-2.1
			c-0.2-0.5-0.7-0.8-1.3-0.6c-0.5,0.2-0.8,0.7-0.6,1.3l0.7,2.1c-0.5,0.2-1.1,0.3-1.6,0.4l-0.5-2.2c-0.1-0.5-0.7-0.9-1.2-0.8
			c-0.5,0.1-0.9,0.6-0.8,1.2l0.5,2.2c-0.5,0.1-1.1,0.2-1.6,0.3l-0.2-2.2c-0.1-0.5-0.6-1-1.1-0.9c-0.5,0.1-0.9,0.5-0.9,1.1l0.2,2.2
			c-0.6,0-1.1,0.1-1.7,0.1v-2.2c0-0.6-0.4-1-1-1s-1,0.4-1,1v2.2c-0.6,0-1.1,0-1.7-0.1l0.2-2.2c0.1-0.5-0.3-1-0.9-1.1
			c-0.5-0.1-1,0.3-1.1,0.9l-0.2,2.2c-0.6-0.1-1.1-0.2-1.6-0.3l0.5-2.2c0.1-0.5-0.2-1.1-0.8-1.2c-0.5-0.1-1.1,0.2-1.2,0.8l-0.5,2.2
			c-0.5-0.1-1.1-0.3-1.6-0.4l0.7-2.1c0.2-0.5-0.1-1.1-0.6-1.3c-0.5-0.2-1.1,0.1-1.3,0.6l-0.7,2.1c-0.5-0.2-1-0.4-1.6-0.6l0.9-2
			c0.2-0.5,0-1.1-0.5-1.3c-0.5-0.2-1.1,0-1.3,0.5l-0.9,2c-0.5-0.2-1-0.5-1.5-0.8l1.1-1.9c0.3-0.5,0.1-1.1-0.4-1.4
			c-0.5-0.3-1.1-0.1-1.4,0.4l-1.1,1.9c-0.5-0.3-0.9-0.6-1.4-0.9l1.3-1.8c0.3-0.4,0.2-1.1-0.2-1.4c-0.4-0.3-1.1-0.2-1.4,0.2l-1.3,1.8
			c-0.4-0.3-0.9-0.7-1.3-1l1.5-1.6c0.4-0.4,0.3-1-0.1-1.4c-0.4-0.4-1-0.3-1.4,0.1l-1.5,1.6c-0.4-0.4-0.8-0.8-1.2-1.2l1.6-1.5
			c0.4-0.4,0.4-1,0.1-1.4c-0.4-0.4-1-0.4-1.4-0.1l-1.6,1.5c-0.4-0.4-0.7-0.9-1-1.3l1.8-1.3c0.4-0.3,0.5-1,0.2-1.4
			c-0.3-0.4-0.9-0.5-1.4-0.2l-1.8,1.3c-0.3-0.5-0.6-0.9-0.9-1.4l1.9-1.1c0.5-0.3,0.6-0.9,0.4-1.4c-0.3-0.5-0.9-0.6-1.4-0.4l-1.9,1.1
			c-0.3-0.5-0.5-1-0.8-1.5l2-0.9c0.5-0.2,0.7-0.8,0.5-1.3c-0.2-0.5-0.8-0.7-1.3-0.5l-2,0.9c-0.2-0.5-0.4-1-0.6-1.6l2.1-0.7
			c0.5-0.2,0.8-0.7,0.6-1.3c-0.2-0.5-0.7-0.8-1.3-0.6l-2.1,0.7c-0.2-0.5-0.3-1.1-0.4-1.6l2.2-0.5c0.5-0.1,0.9-0.6,0.8-1.2
			c-0.1-0.5-0.6-0.9-1.2-0.8l-2.2,0.5c-0.1-0.5-0.2-1.1-0.3-1.6l2.2-0.2c0.5-0.1,0.9-0.5,0.9-1.1c-0.1-0.5-0.6-1-1.1-0.9l-2.2,0.2
			c0-0.6-0.1-1.1-0.1-1.7h2.2c0.6,0,1-0.4,1-1s-0.4-1-1-1H226c0-0.6,0-1.1,0.1-1.7l2.2,0.2c0,0,0.1,0,0.1,0c0.5,0,0.9-0.4,1-0.9
			c0.1-0.5-0.3-1-0.9-1.1l-2.2-0.2c0.1-0.6,0.2-1.1,0.3-1.6l2.2,0.5c0.1,0,0.1,0,0.2,0c0.5,0,0.9-0.3,1-0.8c0.1-0.5-0.2-1.1-0.8-1.2
			l-2.2-0.5c0.1-0.5,0.3-1.1,0.4-1.6l2.1,0.7c0.1,0,0.2,0,0.3,0c0.4,0,0.8-0.3,1-0.7c0.2-0.5-0.1-1.1-0.6-1.3l-2.1-0.7
			c0.2-0.5,0.4-1,0.6-1.6l2,0.9c0.1,0.1,0.3,0.1,0.4,0.1c0.4,0,0.7-0.2,0.9-0.6c0.2-0.5,0-1.1-0.5-1.3l-2-0.9c0.2-0.5,0.5-1,0.8-1.5
			l1.9,1.1c0.2,0.1,0.3,0.1,0.5,0.1c0.3,0,0.7-0.2,0.9-0.5c0.3-0.5,0.1-1.1-0.4-1.4l-1.9-1.1c0.3-0.5,0.6-0.9,0.9-1.4l1.8,1.3
			c0.2,0.1,0.4,0.2,0.6,0.2c0.3,0,0.6-0.1,0.8-0.4c0.3-0.4,0.2-1.1-0.2-1.4l-1.8-1.3c0.3-0.4,0.7-0.9,1-1.3l1.6,1.5
			c0.2,0.2,0.4,0.3,0.7,0.3c0.3,0,0.5-0.1,0.7-0.3c0.4-0.4,0.3-1-0.1-1.4l-1.6-1.5c0.4-0.4,0.8-0.8,1.2-1.2l1.5,1.6
			c0.2,0.2,0.5,0.3,0.7,0.3c0.2,0,0.5-0.1,0.7-0.3c0.4-0.4,0.4-1,0.1-1.4l-1.5-1.6c0.4-0.4,0.9-0.7,1.3-1l1.3,1.8
			c0.2,0.3,0.5,0.4,0.8,0.4c0.2,0,0.4-0.1,0.6-0.2c0.4-0.3,0.5-1,0.2-1.4l-1.3-1.8c0.5-0.3,0.9-0.6,1.4-0.9l1.1,1.9
			c0.2,0.3,0.5,0.5,0.9,0.5c0.2,0,0.3,0,0.5-0.1c0.5-0.3,0.6-0.9,0.4-1.4l-1.1-1.9c0.5-0.3,1-0.5,1.5-0.8l0.9,2
			c0.2,0.4,0.5,0.6,0.9,0.6c0.1,0,0.3,0,0.4-0.1c0.5-0.2,0.7-0.8,0.5-1.3l-0.9-2c0.5-0.2,1-0.4,1.6-0.6l0.7,2.1
			c0.1,0.4,0.5,0.7,1,0.7c0.1,0,0.2,0,0.3,0c0.5-0.2,0.8-0.7,0.6-1.3l-0.7-2.1c0.5-0.2,1.1-0.3,1.6-0.4l0.5,2.2
			c0.1,0.5,0.5,0.8,1,0.8c0.1,0,0.1,0,0.2,0c0.5-0.1,0.9-0.6,0.8-1.2l-0.5-2.2c0.5-0.1,1.1-0.2,1.6-0.3l0.2,2.2
			c0.1,0.5,0.5,0.9,1,0.9c0,0,0.1,0,0.1,0c0.5-0.1,0.9-0.5,0.9-1.1l-0.2-2.2c0.6,0,1.1-0.1,1.7-0.1v2.2c0,0.6,0.4,1,1,1s1-0.4,1-1
			V161c0.6,0,1.1,0,1.7,0.1l-0.2,2.2c-0.1,0.5,0.3,1,0.9,1.1c0,0,0.1,0,0.1,0c0.5,0,0.9-0.4,1-0.9l0.2-2.2c0.6,0.1,1.1,0.2,1.6,0.3
			l-0.5,2.2c-0.1,0.5,0.2,1.1,0.8,1.2c0.1,0,0.1,0,0.2,0c0.5,0,0.9-0.3,1-0.8l0.5-2.2c0.5,0.1,1.1,0.3,1.6,0.4l-0.7,2.1
			c-0.2,0.5,0.1,1.1,0.6,1.3c0.1,0,0.2,0,0.3,0c0.4,0,0.8-0.3,1-0.7l0.7-2.1c0.5,0.2,1,0.4,1.6,0.6l-0.9,2c-0.2,0.5,0,1.1,0.5,1.3
			c0.1,0.1,0.3,0.1,0.4,0.1c0.4,0,0.7-0.2,0.9-0.6l0.9-2c0.5,0.2,1,0.5,1.5,0.8l-1.1,1.9c-0.3,0.5-0.1,1.1,0.4,1.4
			c0.2,0.1,0.3,0.1,0.5,0.1c0.3,0,0.7-0.2,0.9-0.5l1.1-1.9c0.5,0.3,0.9,0.6,1.4,0.9l-1.3,1.8c-0.3,0.4-0.2,1.1,0.2,1.4
			c0.2,0.1,0.4,0.2,0.6,0.2c0.3,0,0.6-0.1,0.8-0.4l1.3-1.8c0.4,0.3,0.9,0.7,1.3,1l-1.5,1.6c-0.4,0.4-0.3,1,0.1,1.4
			c0.2,0.2,0.4,0.3,0.7,0.3c0.3,0,0.5-0.1,0.7-0.3l1.5-1.6c0.4,0.4,0.8,0.8,1.2,1.2l-1.6,1.5c-0.4,0.4-0.4,1-0.1,1.4
			c0.2,0.2,0.5,0.3,0.7,0.3c0.2,0,0.5-0.1,0.7-0.3l1.6-1.5c0.4,0.4,0.7,0.9,1,1.3l-1.8,1.3c-0.4,0.3-0.5,1-0.2,1.4
			c0.2,0.3,0.5,0.4,0.8,0.4c0.2,0,0.4-0.1,0.6-0.2l1.8-1.3c0.3,0.5,0.6,0.9,0.9,1.4l-1.9,1.1c-0.5,0.3-0.6,0.9-0.4,1.4
			c0.2,0.3,0.5,0.5,0.9,0.5c0.2,0,0.3,0,0.5-0.1l1.9-1.1c0.3,0.5,0.5,1,0.8,1.5l-2,0.9c-0.5,0.2-0.7,0.8-0.5,1.3
			c0.2,0.4,0.5,0.6,0.9,0.6c0.1,0,0.3,0,0.4-0.1l2-0.9c0.2,0.5,0.4,1,0.6,1.6l-2.1,0.7c-0.5,0.2-0.8,0.7-0.6,1.3
			c0.1,0.4,0.5,0.7,1,0.7c0.1,0,0.2,0,0.3,0l2.1-0.7c0.2,0.5,0.3,1.1,0.4,1.6l-2.2,0.5c-0.5,0.1-0.9,0.6-0.8,1.2
			c0.1,0.5,0.5,0.8,1,0.8c0.1,0,0.1,0,0.2,0l2.2-0.5c0.1,0.5,0.2,1.1,0.3,1.6l-2.2,0.2c-0.5,0.1-0.9,0.5-0.9,1.1
			c0.1,0.5,0.5,0.9,1,0.9c0,0,0.1,0,0.1,0l2.2-0.2c0,0.6,0.1,1.1,0.1,1.7h-2.2c-0.6,0-1,0.4-1,1s0.4,1,1,1h2.2c0,0.6,0,1.1-0.1,1.7
			l-2.2-0.2c-0.5-0.1-1,0.3-1.1,0.9c-0.1,0.5,0.3,1,0.9,1.1l2.2,0.2c-0.1,0.6-0.2,1.1-0.3,1.6l-2.2-0.5c-0.5-0.1-1.1,0.2-1.2,0.8
			c-0.1,0.5,0.2,1.1,0.8,1.2l2.2,0.5c-0.1,0.5-0.3,1.1-0.4,1.6l-2.1-0.7c-0.5-0.2-1.1,0.1-1.3,0.6c-0.2,0.5,0.1,1.1,0.6,1.3l2.1,0.7
			c-0.2,0.5-0.4,1-0.6,1.6l-2-0.9c-0.5-0.2-1.1,0-1.3,0.5c-0.2,0.5,0,1.1,0.5,1.3l2,0.9c-0.2,0.5-0.5,1-0.8,1.5l-1.9-1.1
			c-0.5-0.3-1.1-0.1-1.4,0.4c-0.3,0.5-0.1,1.1,0.4,1.4l1.9,1.1c-0.3,0.5-0.6,0.9-0.9,1.4l-1.8-1.3c-0.4-0.3-1.1-0.2-1.4,0.2
			c-0.3,0.4-0.2,1.1,0.2,1.4l1.8,1.3c-0.3,0.4-0.7,0.9-1,1.3l-1.6-1.5c-0.4-0.4-1-0.3-1.4,0.1c-0.4,0.4-0.3,1,0.1,1.4l1.6,1.5
			C285.9,220.5,285.5,220.9,285.1,221.3z"/>
		<g opacity="0.25">
			<g>
				<path fill="#47BDEF" d="M281,182c0,0-0.1,0-0.2,0c-0.1,0-0.3,0-0.6,0.1c-0.5,0.1-1.2,0.6-1.5,1.3c-0.2,0.4-0.3,0.8-0.2,1.2
					c0,0.5,0.2,0.9,0.4,1.2c0.2,0.4,0.6,0.6,0.9,0.8c0.2,0.1,0.4,0.2,0.6,0.2c0.1,0,0.2,0,0.3,0c0,0,0.3,0,0.3,0
					c0.8,0,1.6-0.4,2.1-1.1c0.1-0.2,0.2-0.4,0.3-0.6c0-0.1,0.1-0.2,0.1-0.4c0-0.1,0-0.2,0-0.3c0-0.4,0-0.9-0.2-1.3
					c-0.4-0.8-1-1.2-1.5-1.3c-0.2-0.1-0.4-0.1-0.6-0.1C281.1,182,281,182,281,182z"/>
			</g>
		</g>
		<g>
			<ellipse transform="matrix(0.866 -0.5 0.5 0.866 -54.8531 165.2853)" fill="#47BDEF" cx="281" cy="185" rx="3" ry="3"/>
		</g>
		<g>
			<g>
				<g>
					<g>
						<path fill="#47BDEF" d="M261,143c1.1,0,2,0.9,2,2s-0.9,2-2,2s-2-0.9-2-2S259.9,143,261,143 M261,142c-1.7,0-3,1.3-3,3
							s1.3,3,3,3c1.7,0,3-1.3,3-3S262.7,142,261,142L261,142z"/>
					</g>
				</g>
			</g>
			<g>
				<g>
					<g>
						<path fill="#47BDEF" d="M235.5,149.8L235.5,149.8c0.7,0,1.4,0.4,1.7,1c0.6,1,0.2,2.2-0.7,2.7c-0.3,0.2-0.6,0.3-1,0.3
							c-0.7,0-1.4-0.4-1.7-1c-0.6-1-0.2-2.2,0.7-2.7C234.8,149.9,235.1,149.8,235.5,149.8 M235.5,148.8c-0.5,0-1,0.1-1.5,0.4
							c-1.4,0.8-1.9,2.7-1.1,4.1c0.6,1,1.6,1.5,2.6,1.5c0.5,0,1-0.1,1.5-0.4c1.4-0.8,1.9-2.7,1.1-4.1
							C237.5,149.4,236.5,148.8,235.5,148.8L235.5,148.8z"/>
					</g>
				</g>
			</g>
			<g>
				<g>
					<g>
						<path fill="#47BDEF" d="M286.5,238.2L286.5,238.2c0.7,0,1.4,0.4,1.7,1c0.6,1,0.2,2.2-0.7,2.7c-0.3,0.2-0.6,0.3-1,0.3
							c-0.7,0-1.4-0.4-1.7-1c-0.6-1-0.2-2.2,0.7-2.7C285.8,238.3,286.1,238.2,286.5,238.2 M286.5,237.2c-0.5,0-1,0.1-1.5,0.4
							c-1.4,0.8-1.9,2.7-1.1,4.1c0.6,1,1.6,1.5,2.6,1.5c0.5,0,1-0.1,1.5-0.4c1.4-0.8,1.9-2.7,1.1-4.1
							C288.5,237.7,287.5,237.2,286.5,237.2L286.5,237.2z"/>
					</g>
				</g>
			</g>
			<g>
				<g>
					<g>
						<path fill="#47BDEF" d="M216.8,168.5L216.8,168.5c0.3,0,0.7,0.1,1,0.3c1,0.6,1.3,1.8,0.7,2.7c-0.4,0.6-1,1-1.7,1
							c-0.3,0-0.7-0.1-1-0.3c-1-0.6-1.3-1.8-0.7-2.7C215.5,168.9,216.1,168.5,216.8,168.5 M216.8,167.5c-1,0-2,0.5-2.6,1.5
							c-0.8,1.4-0.3,3.3,1.1,4.1c0.5,0.3,1,0.4,1.5,0.4c1,0,2-0.5,2.6-1.5c0.8-1.4,0.3-3.3-1.1-4.1
							C217.9,167.6,217.3,167.5,216.8,167.5L216.8,167.5z"/>
					</g>
				</g>
			</g>
			<g>
				<g>
					<g>
						<path fill="#47BDEF" d="M305.2,219.5L305.2,219.5c0.3,0,0.7,0.1,1,0.3c1,0.6,1.3,1.8,0.7,2.7c-0.4,0.6-1,1-1.7,1
							c-0.3,0-0.7-0.1-1-0.3c-1-0.6-1.3-1.8-0.7-2.7C303.8,219.9,304.5,219.5,305.2,219.5 M305.2,218.5c-1,0-2,0.5-2.6,1.5
							c-0.8,1.4-0.3,3.3,1.1,4.1c0.5,0.3,1,0.4,1.5,0.4c1,0,2-0.5,2.6-1.5c0.8-1.4,0.3-3.3-1.1-4.1
							C306.2,218.6,305.7,218.5,305.2,218.5L305.2,218.5z"/>
					</g>
				</g>
			</g>
			<g>
				<g>
					<g>
						<path fill="#47BDEF" d="M210,194c1.1,0,2,0.9,2,2s-0.9,2-2,2s-2-0.9-2-2S208.9,194,210,194 M210,193c-1.7,0-3,1.3-3,3
							s1.3,3,3,3c1.7,0,3-1.3,3-3S211.7,193,210,193L210,193z"/>
					</g>
				</g>
			</g>
			<g>
				<g>
					<g>
						<path fill="#47BDEF" d="M312,194c1.1,0,2,0.9,2,2s-0.9,2-2,2s-2-0.9-2-2S310.9,194,312,194 M312,193c-1.7,0-3,1.3-3,3
							s1.3,3,3,3c1.7,0,3-1.3,3-3S313.7,193,312,193L312,193z"/>
					</g>
				</g>
			</g>
			<g>
				<g>
					<g>
						<path fill="#47BDEF" d="M216.8,219.5L216.8,219.5c0.7,0,1.4,0.4,1.7,1c0.6,1,0.2,2.2-0.7,2.7c-0.3,0.2-0.6,0.3-1,0.3
							c-0.7,0-1.4-0.4-1.7-1c-0.6-1-0.2-2.2,0.7-2.7C216.1,219.6,216.5,219.5,216.8,219.5 M216.8,218.5c-0.5,0-1,0.1-1.5,0.4
							c-1.4,0.8-1.9,2.7-1.1,4.1c0.6,1,1.6,1.5,2.6,1.5c0.5,0,1-0.1,1.5-0.4c1.4-0.8,1.9-2.7,1.1-4.1
							C218.9,219,217.9,218.5,216.8,218.5L216.8,218.5z"/>
					</g>
				</g>
			</g>
			<g>
				<g>
					<g>
						<g>
							<path fill="#FFFFFF" d="M305.2,173c-0.9,0-1.7-0.5-2.2-1.2c-0.3-0.6-0.4-1.3-0.2-1.9c0.2-0.6,0.6-1.2,1.2-1.5
								c0.4-0.2,0.8-0.3,1.2-0.3c0.9,0,1.7,0.5,2.2,1.2c0.3,0.6,0.4,1.3,0.2,1.9c-0.2,0.6-0.6,1.2-1.2,1.5
								C306,172.9,305.6,173,305.2,173z"/>
						</g>
						<g>
							<path fill="#47BDEF" d="M305.2,168.5L305.2,168.5c0.7,0,1.4,0.4,1.7,1c0.6,1,0.2,2.2-0.7,2.7c-0.3,0.2-0.6,0.3-1,0.3
								c-0.7,0-1.4-0.4-1.7-1c-0.6-1-0.2-2.2,0.7-2.7C304.5,168.6,304.8,168.5,305.2,168.5 M305.2,167.5c-0.5,0-1,0.1-1.5,0.4
								c-1.4,0.8-1.9,2.7-1.1,4.1c0.6,1,1.6,1.5,2.6,1.5c0.5,0,1-0.1,1.5-0.4c1.4-0.8,1.9-2.7,1.1-4.1
								C307.2,168,306.2,167.5,305.2,167.5L305.2,167.5z"/>
						</g>
					</g>
				</g>
			</g>
			<g>
				<g>
					<g>
						<path fill="#47BDEF" d="M235.5,238.2L235.5,238.2c0.3,0,0.7,0.1,1,0.3c1,0.6,1.3,1.8,0.7,2.7c-0.4,0.6-1,1-1.7,1
							c-0.3,0-0.7-0.1-1-0.3c-1-0.6-1.3-1.8-0.7-2.7C234.1,238.6,234.8,238.2,235.5,238.2 M235.5,237.2c-1,0-2,0.5-2.6,1.5
							c-0.8,1.4-0.3,3.3,1.1,4.1c0.5,0.3,1,0.4,1.5,0.4c1,0,2-0.5,2.6-1.5c0.8-1.4,0.3-3.3-1.1-4.1
							C236.5,237.3,236,237.2,235.5,237.2L235.5,237.2z"/>
					</g>
				</g>
			</g>
			<g>
				<g>
					<g>
						<path fill="#47BDEF" d="M286.5,149.8L286.5,149.8c0.3,0,0.7,0.1,1,0.3c1,0.6,1.3,1.8,0.7,2.7c-0.4,0.6-1,1-1.7,1
							c-0.3,0-0.7-0.1-1-0.3c-1-0.6-1.3-1.8-0.7-2.7C285.1,150.2,285.8,149.8,286.5,149.8 M286.5,148.8c-1,0-2,0.5-2.6,1.5
							c-0.8,1.4-0.3,3.3,1.1,4.1c0.5,0.3,1,0.4,1.5,0.4c1,0,2-0.5,2.6-1.5c0.8-1.4,0.3-3.3-1.1-4.1C287.5,149,287,148.8,286.5,148.8
							L286.5,148.8z"/>
					</g>
				</g>
			</g>
		</g>
		<g>
			<g>
				<g>
					<path fill="#47BDEF" d="M263,247.8c-1,0-2-0.4-2.7-1.1c-1.5-1.5-1.5-3.9,0-5.4l3-3c1.4-1.4,4-1.4,5.4,0c1.5,1.5,1.5,3.9,0,5.4
						l-3,3C265,247.4,264,247.8,263,247.8z M266,239.2c-0.5,0-0.9,0.2-1.3,0.5l-3,3c-0.7,0.7-0.7,1.9,0,2.6c0.7,0.7,1.9,0.7,2.6,0
						l3-3c0.7-0.7,0.7-1.9,0-2.6C266.9,239.4,266.5,239.2,266,239.2z"/>
				</g>
			</g>
			<g>
				<g>
					<path fill="#47BDEF" d="M255,255.8c-1,0-2-0.4-2.7-1.1c-1.5-1.5-1.5-3.9,0-5.4l3-3c1.4-1.4,4-1.4,5.4,0c1.5,1.5,1.5,3.9,0,5.4
						l-3,3C257,255.4,256,255.8,255,255.8z M258,247.2c-0.5,0-0.9,0.2-1.3,0.5l-3,3c-0.7,0.7-0.7,1.9,0,2.6c0.7,0.7,1.9,0.7,2.6,0
						l3-3c0.7-0.7,0.7-1.9,0-2.6C258.9,247.4,258.5,247.2,258,247.2z"/>
				</g>
			</g>
			<g>
				<g>
					<path fill="#47BDEF" d="M257,251c-0.3,0-0.5-0.1-0.7-0.3c-0.4-0.4-0.4-1,0-1.4l7-7c0.4-0.4,1-0.4,1.4,0s0.4,1,0,1.4l-7,7
						C257.5,250.9,257.3,251,257,251z"/>
				</g>
			</g>
		</g>
	</g>
	<g>
		<g>
			<path fill="#47BDEF" d="M128,188v16h16v-16H128z M138,194l-3.8,3.8L132,196l-2,2v-8h12v8L138,194z"/>
		</g>
		<g>
			<circle fill="#47BDEF" cx="133.5" cy="193.5" r="1.5"/>
		</g>
	</g>
	<g>
		<path fill="#47BDEF" d="M393.7,195.3l-2-2c-0.2-0.2-0.4-0.3-0.7-0.3h-2.5l0.9-2.3c0.2-0.6,0.2-1.3-0.2-1.9c-0.4-0.5-1-0.9-1.7-0.9
			H386c-0.4,0-0.7,0.2-0.9,0.6l-2.4,4.8c-0.2-0.2-0.4-0.3-0.7-0.3h-3c-0.6,0-1,0.4-1,1v9c0,0.6,0.4,1,1,1h3c0.5,0,0.9-0.4,1-0.9
			l1.6,0.8c0.1,0.1,0.3,0.1,0.4,0.1h6c0.3,0,0.5-0.1,0.7-0.3l1-1c0.1-0.1,0.2-0.3,0.3-0.5l1-6C394,195.8,393.9,195.5,393.7,195.3z
			 M391.1,201.5l-0.5,0.5h-5.4l-1.2-0.6v-6.1l2.6-5.2h0.9l-1.5,3.6c-0.1,0.3-0.1,0.7,0.1,0.9s0.5,0.4,0.8,0.4h3.6l1.3,1.3
			L391.1,201.5z"/>
	</g>
	<g id="XMLID_308_">
		<rect id="XMLID_881_" x="49" y="14" fill="#797D80" width="424" height="13"/>
	</g>
	<g id="XMLID_285_">
		<polygon id="XMLID_869_" fill="#FFFFFF" points="459,20 458,19 462,19 460,21 		"/>
	</g>
	<g id="XMLID_284_">
		<rect id="XMLID_868_" x="423" y="16" fill="#FFFFFF" width="1" height="8"/>
	</g>
	<g id="XMLID_4_">
		<rect id="XMLID_9_" x="71" y="15" fill="#FFFFFF" width="1" height="9"/>
	</g>
	<g id="XMLID_249_">
		<g id="XMLID_252_">
			<rect id="XMLID_864_" x="429" y="18" fill="#FFFFFF" width="24" height="4"/>
		</g>
		<g id="XMLID_250_" opacity="0.75">
			<g id="XMLID_387_">
				<path fill="#FFFFFF" d="M415,18c1.1,0,2,0.9,2,2s-0.9,2-2,2s-2-0.9-2-2S413.9,18,415,18 M415,17c-1.7,0-3,1.3-3,3s1.3,3,3,3
					s3-1.3,3-3S416.7,17,415,17L415,17z"/>
			</g>
		</g>
	</g>
	<g id="XMLID_247_" opacity="0.5">
		<path id="XMLID_862_" fill="#FFFFFF" d="M134,23h24c0.6,0,1-0.4,1-1v-4c0-0.6-0.4-1-1-1h-24c-0.6,0-1,0.4-1,1v4
			C133,22.6,133.4,23,134,23z"/>
	</g>
	<g id="XMLID_245_">
		<rect id="XMLID_861_" x="105" y="18" fill="#FFFFFF" width="20" height="4"/>
	</g>
	<g id="XMLID_1_">
		<g id="XMLID_2_">
			<path fill="#FFFFFF" d="M64,17c0.6,0,1,0.4,1,1v5h-5c-0.6,0-1-0.4-1-1v-4c0-0.6,0.4-1,1-1H64 M64,16h-4c-1.1,0-2,0.9-2,2v4
				c0,1.1,0.9,2,2,2h6v-6C66,16.9,65.1,16,64,16L64,16z"/>
		</g>
	</g>
	<g id="XMLID_3_">
		<g id="XMLID_5_">
			<path fill="#FFFFFF" d="M61,22h3v-3c0-0.6-0.4-1-1-1h-2c-0.6,0-1,0.4-1,1v2C60,21.6,60.4,22,61,22z"/>
		</g>
	</g>
	<g id="XMLID_244_" opacity="0.5">
		<rect id="XMLID_860_" x="77" y="18" fill="#FFFFFF" width="20" height="4"/>
	</g>
</g>
</svg>
